<?xml version="1.0" encoding="UTF-8" standalone="no"?>
<svg
   xmlns:dc="http://purl.org/dc/elements/1.1/"
   xmlns:cc="http://creativecommons.org/ns#"
   xmlns:rdf="http://www.w3.org/1999/02/22-rdf-syntax-ns#"
   xmlns:svg="http://www.w3.org/2000/svg"
   xmlns="http://www.w3.org/2000/svg"
   xmlns:sodipodi="http://sodipodi.sourceforge.net/DTD/sodipodi-0.dtd"
   xmlns:inkscape="http://www.inkscape.org/namespaces/inkscape"
   version="1.1"
   id="svg2"
   width="1217.3333"
   height="1272"
   viewBox="0 0 1217.3333 1272"
   sodipodi:docname="selenium.svg"
   inkscape:version="1.0.1 (3bc2e813f5, 2020-09-07)">
  <metadata
     id="metadata8">
    <rdf:RDF>
      <cc:Work
         rdf:about="">
        <dc:format>image/svg+xml</dc:format>
        <dc:type
           rdf:resource="http://purl.org/dc/dcmitype/StillImage" />
        <dc:title></dc:title>
      </cc:Work>
    </rdf:RDF>
  </metadata>
  <defs
     id="defs6" />
  <sodipodi:namedview
     pagecolor="#ffffff"
     bordercolor="#666666"
     borderopacity="1"
     objecttolerance="10"
     gridtolerance="10"
     guidetolerance="10"
     inkscape:pageopacity="0"
     inkscape:pageshadow="2"
     inkscape:window-width="1920"
     inkscape:window-height="1017"
     id="namedview4"
     showgrid="false"
     fit-margin-top="0"
     fit-margin-left="0"
     fit-margin-right="0"
     fit-margin-bottom="0"
     inkscape:zoom="0.3341195"
     inkscape:cx="398.85432"
     inkscape:cy="560.52195"
     inkscape:window-x="1912"
     inkscape:window-y="-8"
     inkscape:window-maximized="1"
     inkscape:current-layer="g10" />
  <g
     inkscape:groupmode="layer"
     inkscape:label="Image"
     id="g10"
     transform="translate(529.75059,-257.39294)">
    <g
       id="g14"
       transform="translate(-529.75059,257.39294)">
      <path
         style="fill:#fdfdfd;stroke-width:0.666667"
         d="M 0,636.66667 V 1.3333333 l 4.1666666,0.00249 4.1666665,0.00249 -2.1343009,1.3013596 C 5.0251667,3.3554274 3.6001667,4.839408 3.0323656,5.9374143 2.1024635,7.735644 1.9999999,70.33628 1.9999999,636.66667 c 0,566.33043 0.1024636,628.93103 1.0323657,630.72923 0.5678011,1.098 1.9928011,2.582 3.1666666,3.2978 l 2.1343009,1.3013 H 4.1666666 0 V 636.66167 Z m 1211.2068,633.98293 c 1.2137,-0.74 2.6387,-2.3793 3.1666,-3.6428 0.8327,-1.9929 0.9599,-73.676 0.9599,-541.0638 V 187.17647 l -2.5883,-2.58824 C 1210.5863,182.42948 1209.7065,182 1207.4431,182 c -1.4925,0 -3.4882,0.35288 -4.4348,0.78417 -0.9466,0.4313 -54.0183,59.4563 -117.9372,131.16667 -63.9189,71.71037 -152.71159,171.33249 -197.31712,221.38249 -50.34227,56.48699 -81.9656,91.45808 -83.3808,92.20781 -2.6304,1.39353 -6.56027,1.60723 -9.81327,0.53363 -1.7098,-0.56428 -27.0358,-26.26372 -103.5782,-105.10553 -62.88131,-64.77029 -101.751,-105.29637 -102.46425,-106.8306 -1.56142,-3.35875 -1.46893,-6.02533 0.33042,-9.52565 1.50212,-2.92211 62.79239,-83.56874 66.75449,-87.83654 1.13535,-1.22294 2.87438,-2.64794 3.86451,-3.16666 2.51824,-1.31928 8.21857,-1.19986 10.66997,0.22354 1.10506,0.64167 27.9784,30.0787 59.7184,65.41562 40.55646,45.15253 58.36193,64.52172 59.90553,65.16666 3.289,1.37425 7.61533,1.14119 10.80933,-0.58228 2.4156,-1.3035 23.35647,-29.53432 159.85173,-215.5 86.38956,-117.7 157.63476,-214.899997 158.32256,-215.999997 2.4653,-3.942618 0.7446,-10.0341724 -3.4311,-12.147126 -1.3311,-0.6735673 8.285,-0.835101 50.1867,-0.8430458 l 51.8333,-0.00983 V 636.66667 1272 H 1213.1666 1209 l 2.2068,-1.3454 z M 306.99999,1131.9569 c -46.51601,-2.9902 -95.62906,-18.3576 -135.52373,-42.4053 -14.11795,-8.5101 -37.2358,-25.5417 -44.62992,-32.8803 -3.09175,-3.0684 -4.27544,-7.9125 -2.8498,-11.6622 0.89447,-2.3526 48.30952,-68.8659 50.71545,-71.14303 4.58535,-4.33987 10.90272,-3.7718 16.95522,1.52453 17.84199,15.61313 31.53049,25.0089 50.4197,34.6079 29.90645,15.1978 58.14861,22.7623 92.5325,24.7845 24.61754,1.4478 45.66354,-1.3143 64.0144,-8.4015 26.77785,-10.3416 42.6802,-32.55423 39.08052,-54.5883 -2.20601,-13.50327 -9.27698,-22.7154 -24.42277,-31.81827 -14.4472,-8.68306 -33.94423,-14.92233 -85.34576,-27.3118 C 286.39389,902.6478 275.95791,899.81053 256.33333,893.19347 189.95792,870.8128 153.64238,838.02807 141.41637,789.44933 138.05596,776.0972 137.07147,767.426 137.05096,751 c -0.0231,-18.45967 1.60131,-29.3954 6.71798,-45.22767 9.77665,-30.2514 28.96508,-55.87858 56.59186,-75.58143 27.71203,-19.76363 64.29865,-32.73744 103.97252,-36.86919 20.6055,-2.14592 56.98579,-1.98258 76.00468,0.34124 46.44529,5.67492 90.6242,22.01393 129.20715,47.78562 8.73158,5.8323 20.91432,15.07774 22.464,17.04784 2.027,2.57691 2.83324,6.37512 2.00565,9.44859 -0.48032,1.78373 -8.64906,13.14307 -25.76857,35.83333 -13.78592,18.27194 -25.85602,33.87027 -26.82244,34.66307 -0.96643,0.79273 -2.86205,1.77373 -4.2125,2.18 -4.10136,1.23393 -7.15677,0.054 -15.0424,-5.80813 -36.44811,-27.096 -76.35037,-42.05514 -121.20661,-45.43954 -28.86704,-2.17806 -50.65905,1.21894 -67.35673,10.4998 -15.62061,8.68214 -24.90702,23.884 -24.9194,40.79314 -0.013,17.75406 11.67872,30.12006 38.31384,40.52346 14.70902,5.74514 31.5917,10.4162 76.66667,21.21174 47.92807,11.47886 76.96577,20.926 101.33333,32.9678 19.37263,9.57346 32.27864,18.2602 44.58292,30.0078 22.533,21.5136 34.48363,45.5394 38.81309,78.03073 1.49795,11.2416 1.50514,32.76027 0.0148,44.25847 -7.23593,55.82643 -38.50557,97.96823 -90.58734,122.08363 -17.35669,8.0367 -41.13558,15.01 -63.36027,18.5806 -12.53451,2.0138 -24.93547,3.02 -45.12986,3.6617 -22.71426,0.7217 -30.65503,0.715 -42.33333,-0.035 z m 475.27226,0.046 c -30.62774,-2.6458 -65.1218,-14.5181 -90.6056,-31.1848 -16.48527,-10.7816 -36.56988,-29.0765 -47.73891,-43.485 -21.35217,-27.545 -34.6464,-58.69963 -39.96926,-93.66663 -1.79112,-11.7662 -2.52933,-43.0838 -1.34915,-57.2356 2.13125,-25.5562 8.41307,-48.32867 19.70435,-71.43107 22.48184,-45.99873 60.73797,-80.64733 108.9381,-98.6652 24.43867,-9.1356 48.14773,-12.88173 76.7482,-12.1266 21.39353,0.56487 38.2404,3.0724 55.33333,8.23607 66.3668,20.049 113.24086,73.929 128.9884,148.26746 3.79606,17.92 5.62246,36.48674 5.86486,59.6216 0.14487,13.82 0.1262,14.0288 -1.4524,16.24207 -3.13413,4.3944 7.63073,4.09127 -145.27613,4.09127 -138.78226,0 -139.25553,0.007 -140.46793,1.34426 -1.1072,1.2234 -1.14326,1.7422 -0.4012,5.76954 0.44847,2.43386 1.735,7.30393 2.85894,10.8224 8.6078,26.94603 27.74473,49.27783 52.88546,61.71453 9.97434,4.9341 17.81447,7.6545 28.08673,9.7453 13.11674,2.6699 38.7014,1.7214 57.5524,-2.1336 20.39247,-4.1702 42.00527,-13.1001 59.6942,-24.6642 8.72707,-5.7054 11.24053,-6.4834 15.2084,-4.7078 1.5354,0.6872 3.2724,1.8179 3.86007,2.5128 0.58766,0.6949 8.8104,12.6272 18.2728,26.5162 15.36213,22.5488 17.23306,25.5827 17.47253,28.3334 0.1902,2.1841 -0.10487,3.7595 -1.014,5.4138 -3.30967,6.0226 -32.52173,23.1242 -56.13313,32.862 -20.28867,8.3674 -44.41607,14.2996 -68.1966,16.7674 -10.89927,1.1311 -49.84673,1.8194 -58.86446,1.0404 z M 897.99998,891.12007 c 1.5232,-0.7862 1.65446,-1.20147 1.525,-4.82354 -0.44734,-12.51366 -6.0712,-28.31246 -14.68534,-41.25446 -12.4026,-18.6338 -31.23806,-31.92787 -52.83966,-37.29414 -18.762,-4.6608 -46.56247,-3.26 -63.52087,3.20067 -16.39446,6.24587 -31.74466,17.75173 -42.1122,31.56567 -9.39726,12.52113 -17.08086,31.54153 -17.8028,44.07 -0.13626,2.3648 0.1242,3.15433 1.3744,4.16666 1.4914,1.20767 4.607,1.24874 93.96867,1.23927 74.1642,-0.008 92.75546,-0.1798 94.0928,-0.87013 z"
         id="path30" />
      <path
         style="fill:#d2ebcc;stroke-width:0.666667"
         d="m 4.2699916,1269.1667 -1.2699917,-1.5 1.5,1.27 c 0.825,0.6984 1.4999999,1.3734 1.4999999,1.5 0,0.5334 -0.5365294,0.1396 -1.7300082,-1.27 z m 1208.0633084,0.1666 c 0.6637,-0.7333 1.3567,-1.3333 1.54,-1.3333 0.1833,0 -0.2097,0.6 -0.8733,1.3333 -0.6637,0.7334 -1.3567,1.3334 -1.54,1.3334 -0.1834,0 0.2096,-0.6 0.8733,-1.3334 z m -899.12498,-137.122 c 0.48125,-0.1926 1.05626,-0.169 1.27778,0.053 0.22153,0.2216 -0.17222,0.3792 -0.875,0.3502 -0.77663,-0.032 -0.9346,-0.19 -0.40278,-0.4028 z m 26.29167,-0.035 c 1.74167,-0.1373 4.59167,-0.1373 6.33333,0 1.74167,0.1373 0.31667,0.2497 -3.16666,0.2497 -3.48334,0 -4.90834,-0.1124 -3.16667,-0.2497 z m 468.99999,0.01 c 1.19166,-0.1479 3.14166,-0.1479 4.33333,0 1.19167,0.1479 0.21667,0.2689 -2.16667,0.2689 -2.38333,0 -3.35833,-0.121 -2.16666,-0.2689 z m 10.66666,0.041 c 0.45834,-0.185 1.20834,-0.185 1.66667,0 0.45833,0.1849 0.0833,0.3362 -0.83333,0.3362 -0.91667,0 -1.29167,-0.1513 -0.83334,-0.3362 z m -456.62498,-0.6806 c 0.48124,-0.1926 1.05625,-0.1689 1.27778,0.053 0.22152,0.2215 -0.17223,0.3791 -0.875,0.3502 -0.77664,-0.032 -0.9346,-0.19 -0.40278,-0.4028 z m 471.99998,0 c 0.48127,-0.1926 1.05627,-0.1689 1.2778,0.053 0.22154,0.2215 -0.17226,0.3791 -0.875,0.3502 -0.77666,-0.032 -0.9346,-0.19 -0.4028,-0.4028 z M 657.33332,1073 c -2.73165,-2.75 -4.81663,-5 -4.6333,-5 0.18334,0 2.56832,2.25 5.29996,5 2.73165,2.75 4.81663,5 4.6333,5 -0.18334,0 -2.56832,-2.25 -5.29996,-5 z m 151.81846,-21.4811 c 1.18346,-0.1473 3.28346,-0.1498 4.66666,-0.01 1.3832,0.1443 0.41487,0.2648 -2.1518,0.2678 -2.56666,0 -3.69833,-0.1151 -2.51486,-0.2624 z m -470.30577,-16.6476 c 0.64865,-0.169 1.54865,-0.1579 2,0.025 0.45135,0.1826 -0.0793,0.3209 -1.17935,0.3073 -1.1,-0.013 -1.4693,-0.163 -0.82065,-0.332 z m 14,0 c 0.64865,-0.169 1.54865,-0.1579 2,0.025 0.45135,0.1826 -0.0793,0.3209 -1.17935,0.3073 -1.1,-0.013 -1.4693,-0.163 -0.82065,-0.332 z m -26.30435,-0.66 c 0.48124,-0.1926 1.05625,-0.169 1.27778,0.053 0.22152,0.2216 -0.17223,0.3792 -0.875,0.3502 -0.77664,-0.032 -0.9346,-0.19 -0.40278,-0.4028 z m 222.84429,-61.26683 c 0.032,-0.77667 0.18996,-0.9346 0.40277,-0.4028 0.19258,0.48126 0.1689,1.05626 -0.0526,1.2778 -0.22152,0.22153 -0.37909,-0.17227 -0.35014,-0.875 z m 0.0526,-13.61114 c 0,-0.91666 0.15132,-1.29166 0.33626,-0.83333 0.18494,0.45833 0.18494,1.20833 0,1.66667 -0.18494,0.45833 -0.33626,0.0833 -0.33626,-0.83334 z m -123.1472,-9.5 -1.95806,-2.16666 2.16667,1.95806 c 2.01964,1.8252 2.4731,2.37527 1.95806,2.37527 -0.11474,0 -1.08974,-0.975 -2.16667,-2.16667 z m 571.83853,-13.5 c 0.0133,-1.1 0.163,-1.46926 0.33206,-0.82066 0.169,0.64866 0.15794,1.54866 -0.0247,2 -0.1826,0.4514 -0.32087,-0.0793 -0.30734,-1.17934 z m -0.744,-16.05553 c 0.032,-0.77667 0.19,-0.9346 0.4028,-0.4028 0.1926,0.48127 0.16893,1.05627 -0.0527,1.2778 -0.22153,0.22153 -0.37913,-0.17227 -0.3502,-0.875 z m -239.8859,-28.77773 c 25.575,-0.0967 67.425,-0.0967 93,0 25.575,0.0967 4.65,0.1758 -46.5,0.1758 -51.15,0 -72.075,-0.0791 -46.5,-0.1758 z M 511.94953,867.5 l -1.61621,-1.83333 1.83333,1.6162 c 1.00834,0.88893 1.83334,1.71393 1.83334,1.83333 0,0.52287 -0.53987,0.0973 -2.05046,-1.6162 z m 295.22905,-62.6498 c 1.19826,-0.1484 2.99826,-0.14533 4,0.007 1.0018,0.15206 0.0213,0.27346 -2.1786,0.26973 -2.2,-0.007 -3.0196,-0.1282 -1.8214,-0.27653 z M 655.33332,786.41493 c 0,-0.1384 0.525,-0.6634 1.16666,-1.16666 1.05738,-0.8292 1.08096,-0.80567 0.25171,0.25173 -0.87091,1.11047 -1.41837,1.46367 -1.41837,0.91493 z m 285.94952,-6.24826 -1.6162,-1.83334 1.83333,1.6162 c 1.00834,0.88894 1.83334,1.71394 1.83334,1.83334 0,0.52286 -0.53987,0.0973 -2.05047,-1.6162 z M 664.66665,777 c 0.86117,-0.91667 1.71575,-1.66667 1.89909,-1.66667 0.18331,0 -0.37126,0.75 -1.23242,1.66667 -0.86117,0.91667 -1.71576,1.66667 -1.89909,1.66667 -0.18333,0 0.37125,-0.75 1.23242,-1.66667 z m 268.61619,-4.83333 -1.6162,-1.83334 1.83333,1.6162 c 1.00834,0.88894 1.83334,1.71394 1.83334,1.83334 0,0.52286 -0.53987,0.0973 -2.05047,-1.6162 z m -117.40786,-47.9554 c 0.48126,-0.1926 1.05626,-0.16894 1.2778,0.0527 0.22153,0.22154 -0.17227,0.37914 -0.875,0.3502 -0.77667,-0.032 -0.9346,-0.19 -0.4028,-0.4028 z M 261.66666,708.66667 C 263.09882,707.2 264.42059,706 264.60393,706 c 0.18333,0 -0.83844,1.2 -2.2706,2.66667 -1.43216,1.46666 -2.75394,2.66666 -2.93727,2.66666 -0.18333,0 0.83844,-1.2 2.2706,-2.66666 z m 52.20833,-19.78874 c 0.48125,-0.1926 1.05625,-0.16893 1.27778,0.0527 0.22153,0.22153 -0.17223,0.37913 -0.875,0.3502 -0.77663,-0.032 -0.9346,-0.19 -0.40278,-0.4028 z m 19.29167,0.014 c 0.45833,-0.18493 1.20833,-0.18493 1.66666,0 0.45834,0.18494 0.0833,0.33627 -0.83333,0.33627 -0.91667,0 -1.29167,-0.15133 -0.83333,-0.33627 z M 173.33333,653.74829 c 0,-0.13843 0.525,-0.66343 1.16667,-1.16666 1.05737,-0.82925 1.08095,-0.80567 0.2517,0.2517 -0.87091,1.1105 -1.41837,1.46366 -1.41837,0.91496 z m 10.66666,-10.66666 c 0,-0.13844 0.525,-0.66344 1.16667,-1.16667 1.05737,-0.82925 1.08095,-0.80567 0.25171,0.25171 -0.87092,1.1105 -1.41838,1.46365 -1.41838,0.91496 z m 624.66665,-19.33334 c 0,-0.13843 0.525,-0.66343 1.16667,-1.16666 1.0574,-0.82925 1.08093,-0.80567 0.25173,0.2517 -0.87093,1.1105 -1.4184,1.46366 -1.4184,0.91496 z M 777.63525,612.5 l -2.63527,-2.83333 2.83333,2.6353 c 2.635,2.4508 3.13967,3.03136 2.63527,3.03136 -0.10887,0 -1.38387,-1.275 -2.83333,-2.83333 z m 53.03139,-13.41837 c 0,-0.13844 0.525,-0.66344 1.16667,-1.16667 1.0574,-0.82925 1.08093,-0.80567 0.25173,0.25171 -0.87093,1.1105 -1.4184,1.46365 -1.4184,0.91496 z m 5.33334,-6 c 0,-0.13844 0.525,-0.66344 1.16666,-1.16667 1.0574,-0.82925 1.08094,-0.80567 0.25174,0.25171 -0.87094,1.1105 -1.4184,1.46365 -1.4184,0.91496 z m -470.12499,-0.87037 c 0.48125,-0.19258 1.05625,-0.1689 1.27778,0.0526 0.22153,0.22153 -0.17223,0.37909 -0.875,0.35015 -0.77663,-0.032 -0.9346,-0.18996 -0.40278,-0.40278 z m 389.45832,-2.54459 c -1.61933,-1.65 -2.79426,-3 -2.61093,-3 0.18333,0 1.65827,1.35 3.2776,3 1.61933,1.65 2.79427,3 2.61093,3 -0.18333,0 -1.65826,-1.35 -3.2776,-3 z m -419.82063,1.87134 c 0.64864,-0.16903 1.54864,-0.15792 2,0.0247 0.45135,0.18262 -0.0794,0.32091 -1.17936,0.30733 -1.1,-0.0136 -1.46929,-0.163 -0.82064,-0.33203 z m 13.98731,0.003 c 0.64167,-0.16768 1.69167,-0.16768 2.33333,0 0.64167,0.16769 0.11667,0.30489 -1.16666,0.30489 -1.28334,0 -1.80834,-0.1372 -1.16667,-0.30489 z M 733.33331,567 c -1.61933,-1.65 -2.79426,-3 -2.61093,-3 0.18333,0 1.65827,1.35 3.2776,3 1.61933,1.65 2.79427,3 2.61093,3 -0.18333,0 -1.65826,-1.35 -3.2776,-3 z m 124.66667,1.41496 c 0,-0.13843 0.525,-0.66343 1.16666,-1.16667 1.0574,-0.82924 1.08094,-0.80566 0.25174,0.25171 -0.87094,1.1105 -1.4184,1.46365 -1.4184,0.91496 z m 5.33333,-6 c 0,-0.13843 0.525,-0.66343 1.16667,-1.16667 1.0574,-0.82924 1.08093,-0.80566 0.25173,0.25171 -0.87093,1.1105 -1.4184,1.46365 -1.4184,0.91496 z m -152,-18.08163 c -1.61933,-1.65 -2.79426,-3 -2.61093,-3 0.18333,0 1.65827,1.35 3.2776,3 1.61933,1.65 2.79427,3 2.61093,3 -0.18333,0 -1.65826,-1.35 -3.2776,-3 z m 174,-6.58504 c 0,-0.13843 0.525,-0.66343 1.16667,-1.16666 1.0574,-0.82925 1.08093,-0.80567 0.25173,0.2517 -0.87093,1.1105 -1.4184,1.46366 -1.4184,0.91496 z m -196,-16.08162 c -1.61933,-1.65 -2.79426,-3 -2.61093,-3 0.18333,0 1.65827,1.35 3.2776,3 1.61933,1.65 2.79427,3 2.61093,3 -0.18333,0 -1.65826,-1.35 -3.2776,-3 z m 223.33333,-14.58504 c 0,-0.13844 0.525,-0.66344 1.16667,-1.16667 1.0574,-0.82925 1.08093,-0.80567 0.25173,0.25171 -0.87093,1.1105 -1.4184,1.46365 -1.4184,0.91496 z M 666.96858,498.5 l -2.63526,-2.83333 2.83333,2.6353 c 2.635,2.4508 3.13966,3.03136 2.63526,3.03136 -0.10886,0 -1.38386,-1.275 -2.83333,-2.83333 z m 267.69806,-16.08504 c 0,-0.13843 0.525,-0.66343 1.16667,-1.16667 1.0574,-0.82924 1.08093,-0.80566 0.25173,0.25171 -0.87093,1.1105 -1.4184,1.46365 -1.4184,0.91496 z M 644.96862,475.83333 642.33332,473 l 2.83333,2.6353 c 1.55833,1.44941 2.83333,2.72441 2.83333,2.83333 0,0.50439 -0.58056,-3.2e-4 -3.03136,-2.6353 z m 295.03135,0.58163 c 0,-0.13843 0.525,-0.66343 1.16667,-1.16667 1.0574,-0.82924 1.08093,-0.80566 0.25173,0.25171 -0.87093,1.1105 -1.4184,1.46365 -1.4184,0.91496 z m -317.03135,-23.24829 -2.6353,-2.83334 2.83333,2.6353 c 2.63497,2.4508 3.13969,3.03137 2.6353,3.03137 -0.10892,0 -1.38392,-1.275 -2.83333,-2.83333 z m 339.03135,-1.41838 c 0,-0.13843 0.525,-0.66343 1.16667,-1.16666 1.0574,-0.82925 1.08093,-0.80567 0.25173,0.2517 -0.87093,1.1105 -1.4184,1.46366 -1.4184,0.91496 z m 5.33334,-6 c 0,-0.13843 0.525,-0.66343 1.16666,-1.16666 1.0574,-0.82925 1.08094,-0.80567 0.25174,0.2517 -0.87094,1.1105 -1.4184,1.46366 -1.4184,0.91496 z M 600.96862,430.5 l -2.6353,-2.83333 2.83333,2.6353 c 2.63497,2.4508 3.13969,3.03136 2.6353,3.03136 -0.10892,0 -1.38392,-1.275 -2.83333,-2.83333 z m 388.36469,-9.41837 c 0,-0.13844 0.525,-0.66344 1.16666,-1.16667 1.0574,-0.82925 1.08094,-0.80567 0.25174,0.25171 -0.87094,1.1105 -1.4184,1.46365 -1.4184,0.91496 z m 27.33329,-30.66667 c 0,-0.13843 0.525,-0.66343 1.1667,-1.16667 1.0574,-0.82924 1.0809,-0.80566 0.2517,0.25171 -0.8709,1.1105 -1.4184,1.46365 -1.4184,0.91496 z M 1044,359.74829 c 0,-0.13843 0.525,-0.66343 1.1666,-1.16666 1.0574,-0.82925 1.081,-0.80567 0.2518,0.2517 -0.871,1.1105 -1.4184,1.46366 -1.4184,0.91496 z m 22,-24.66666 c 0,-0.13844 0.525,-0.66344 1.1666,-1.16667 1.0574,-0.82925 1.081,-0.80567 0.2518,0.25171 -0.871,1.1105 -1.4184,1.46365 -1.4184,0.91496 z m 5.3333,-6 c 0,-0.13844 0.525,-0.66344 1.1667,-1.16667 1.0574,-0.82925 1.0809,-0.80567 0.2517,0.25171 -0.8709,1.1105 -1.4184,1.46365 -1.4184,0.91496 z m 22,-24.66667 c 0,-0.13843 0.525,-0.66343 1.1667,-1.16667 1.0574,-0.82924 1.0809,-0.80566 0.2517,0.25171 -0.8709,1.1105 -1.4184,1.46365 -1.4184,0.91496 z m 5.3333,-6 c 0,-0.13843 0.525,-0.66343 1.1667,-1.16667 1.0574,-0.82924 1.0809,-0.80566 0.2517,0.25171 -0.8709,1.1105 -1.4184,1.46365 -1.4184,0.91496 z m 22,-24.66667 c 0,-0.13843 0.525,-0.66343 1.1667,-1.16666 1.0574,-0.82925 1.0809,-0.80567 0.2517,0.2517 -0.8709,1.1105 -1.4184,1.46366 -1.4184,0.91496 z M 1148,243.08163 c 0,-0.13844 0.525,-0.66344 1.1666,-1.16667 1.0574,-0.82925 1.081,-0.80567 0.2518,0.25171 -0.871,1.1105 -1.4184,1.46365 -1.4184,0.91496 z m 5.3333,-6 c 0,-0.13844 0.525,-0.66344 1.1667,-1.16667 1.0574,-0.82925 1.0809,-0.80567 0.2517,0.25171 -0.8709,1.1105 -1.4184,1.46365 -1.4184,0.91496 z m 27.3333,-30.66667 c 0,-0.13843 0.525,-0.66343 1.1667,-1.16667 1.0574,-0.82924 1.0809,-0.80566 0.2517,0.25171 -0.8709,1.1105 -1.4184,1.46365 -1.4184,0.91496 z M 0,0.66666667 C 0,0.22270902 203.33333,0 608.66665,0 1014,0 1217.3333,0.22270902 1217.3333,0.66666667 1217.3333,1.1106243 1014,1.3333333 608.66665,1.3333333 203.33333,1.3333333 0,1.1106243 0,0.66666667 Z"
         id="path28" />
      <path
         style="fill:#c3e5bb;stroke-width:0.666667"
         d="m 349.20832,1132.2113 c 0.48125,-0.1926 1.05626,-0.169 1.27778,0.053 0.22153,0.2216 -0.17222,0.3792 -0.875,0.3502 -0.77663,-0.032 -0.9346,-0.19 -0.40278,-0.4028 z m 472.62499,0.014 c 0.45833,-0.185 1.20833,-0.185 1.66667,0 0.45833,0.1849 0.0833,0.3362 -0.83334,0.3362 -0.91666,0 -1.29166,-0.1513 -0.83333,-0.3362 z m -158.58503,-53.392 c -0.82925,-1.0574 -0.80567,-1.0809 0.2517,-0.2517 1.1105,0.8709 1.46366,1.4184 0.91496,1.4184 -0.13843,0 -0.66343,-0.525 -1.16666,-1.1667 z m -321.41496,-43.9415 c 0.45834,-0.1849 1.20834,-0.1849 1.66667,0 0.45833,0.1849 0.0833,0.3363 -0.83333,0.3363 -0.91667,0 -1.29167,-0.1514 -0.83334,-0.3363 z m 8,0 c 0.45834,-0.1849 1.20834,-0.1849 1.66667,0 0.45833,0.1849 0.0833,0.3363 -0.83333,0.3363 -0.91667,0 -1.29167,-0.1514 -0.83334,-0.3363 z m 74.16667,-25.1435 c 0,-0.1384 0.525,-0.6634 1.16667,-1.1667 1.05737,-0.8292 1.08095,-0.8057 0.2517,0.2517 -0.87091,1.1105 -1.41837,1.4637 -1.41837,0.915 z m 14.05263,-32.13717 c 0.032,-0.77666 0.18996,-0.9346 0.40277,-0.4028 0.19258,0.48127 0.1689,1.05627 -0.0526,1.2778 -0.22152,0.22154 -0.37909,-0.17226 -0.35014,-0.875 z m 559.99995,-44 c 0.032,-0.77666 0.19,-0.9346 0.4028,-0.4028 0.1926,0.48127 0.16894,1.05627 -0.0527,1.2778 -0.22154,0.22154 -0.37914,-0.17226 -0.3502,-0.875 z m -488.80429,-68.7778 c -0.82925,-1.0574 -0.80567,-1.08093 0.25171,-0.25173 0.64166,0.50327 1.16666,1.02827 1.16666,1.16667 0,0.54873 -0.54746,0.19553 -1.41837,-0.91494 z m 144.08504,-76.4184 c 0,-0.1384 0.525,-0.6634 1.16666,-1.16666 1.05738,-0.8292 1.08096,-0.80567 0.25171,0.25173 -0.87091,1.11047 -1.41837,1.46367 -1.41837,0.91493 z m -337.45833,-99.537 c 0.48125,-0.1926 1.05625,-0.16893 1.27778,0.0527 0.22153,0.22153 -0.17223,0.37913 -0.875,0.3502 -0.77663,-0.032 -0.9346,-0.19 -0.40278,-0.4028 z m 13.625,-0.007 c 0.64167,-0.16774 1.69167,-0.16774 2.33333,0 0.64167,0.16766 0.11667,0.30486 -1.16666,0.30486 -1.28334,0 -1.80834,-0.1372 -1.16667,-0.30486 z m 443.45806,-81.03794 -1.95807,-2.16666 2.16667,1.95806 c 2.01966,1.82518 2.47313,2.37527 1.95806,2.37527 -0.11473,0 -1.08973,-0.975 -2.16666,-2.16667 z M 331.49999,591.54045 c 0.64167,-0.16768 1.69167,-0.16768 2.33333,0 0.64167,0.16768 0.11667,0.30488 -1.16666,0.30488 -1.28334,0 -1.80834,-0.1372 -1.16667,-0.30488 z m 22.01269,-0.003 c 0.64864,-0.16903 1.54864,-0.15791 2,0.0247 0.45135,0.18262 -0.0794,0.32092 -1.17936,0.30733 -1.1,-0.0136 -1.46929,-0.163 -0.82064,-0.33203 z m 397.1035,-6.70445 -1.6162,-1.83333 1.83333,1.61621 c 1.00834,0.88892 1.83334,1.71392 1.83334,1.83333 0,0.52285 -0.53987,0.0973 -2.05047,-1.61621 z m -22,-22.66666 -1.6162,-1.83334 1.83333,1.61621 c 1.71354,1.51059 2.13907,2.05046 1.6162,2.05046 -0.1194,0 -0.9444,-0.825 -1.83333,-1.83333 z m -22,-22.66667 -1.6162,-1.83333 1.83333,1.6162 c 1.71354,1.5106 2.13907,2.05046 1.6162,2.05046 -0.1194,0 -0.9444,-0.825 -1.83333,-1.83333 z m -22,-22.66667 -1.6162,-1.83333 1.83333,1.61621 c 1.00834,0.88892 1.83334,1.71392 1.83334,1.83333 0,0.52285 -0.53987,0.0973 -2.05047,-1.61621 z m -21.99999,-22.66666 -1.61621,-1.83334 1.83334,1.61621 c 1.00833,0.88892 1.83333,1.71392 1.83333,1.83333 0,0.52286 -0.53987,0.0973 -2.05046,-1.6162 z m -22.32481,-23 -1.95806,-2.16667 2.16666,1.95806 c 2.01964,1.82519 2.4731,2.37527 1.95806,2.37527 -0.11473,0 -1.08973,-0.975 -2.16666,-2.16666 z M 618.61619,448.83333 616.99998,447 l 1.83334,1.61621 c 1.00833,0.88892 1.83333,1.71392 1.83333,1.83333 0,0.52285 -0.53987,0.0973 -2.05046,-1.61621 z m -22.32481,-23 -1.95806,-2.16666 2.16666,1.95806 c 2.01964,1.82518 2.4731,2.37527 1.95806,2.37527 -0.11473,0 -1.08973,-0.975 -2.16666,-2.16667 z"
         id="path26" />
      <path
         style="fill:#a5d899;stroke-width:0.666667"
         d="m 309.16666,1132.2251 c 0.45833,-0.1849 1.20833,-0.1849 1.66666,0 0.45834,0.185 0.0833,0.3363 -0.83333,0.3363 -0.91667,0 -1.29167,-0.1513 -0.83333,-0.3363 z m 42,0 c 0.45833,-0.1849 1.20833,-0.1849 1.66666,0 0.45834,0.185 0.0833,0.3363 -0.83333,0.3363 -0.91667,0 -1.29167,-0.1513 -0.83333,-0.3363 z m 473.33332,0 c 0.45833,-0.1849 1.20833,-0.1849 1.66666,0 0.45834,0.185 0.0833,0.3363 -0.83333,0.3363 -0.91667,0 -1.29167,-0.1513 -0.83333,-0.3363 z m 2.70833,-81.3472 c 0.48127,-0.1926 1.05627,-0.1689 1.2778,0.053 0.22153,0.2215 -0.17227,0.3791 -0.875,0.3502 -0.77667,-0.032 -0.9346,-0.19 -0.4028,-0.4028 z m -482.04165,-16.015 c 0.825,-0.159 2.175,-0.159 3,0 0.825,0.1588 0.15,0.2888 -1.5,0.2888 -1.65,0 -2.325,-0.13 -1.5,-0.2888 z m -15.95834,-0.6516 c 0.48125,-0.1926 1.05626,-0.169 1.27778,0.053 0.22153,0.2216 -0.17222,0.3792 -0.875,0.3502 -0.77663,-0.032 -0.9346,-0.19 -0.40278,-0.4028 z m 220.17763,-57.9335 c 0.032,-0.77667 0.18996,-0.9346 0.40277,-0.4028 0.19258,0.48127 0.1689,1.05627 -0.0526,1.2778 -0.22152,0.22153 -0.37909,-0.17227 -0.35014,-0.875 z m 232.50056,-15.44447 c 38.25427,-0.0951 100.65427,-0.0951 138.66666,7e-5 38.0124,0.0951 6.71347,0.17287 -69.55319,0.17287 -76.26667,0 -107.36773,-0.0778 -69.11347,-0.17294 z m -232.50056,-5.2222 c 0.032,-0.77666 0.18996,-0.9346 0.40277,-0.4028 0.19258,0.48127 0.1689,1.05627 -0.0526,1.2778 -0.22152,0.22154 -0.37909,-0.17226 -0.35014,-0.875 z m 52.10203,-20.94446 c 0,-1.28334 0.1372,-1.80834 0.30489,-1.16667 0.16768,0.64167 0.16768,1.69167 0,2.33333 -0.16769,0.64167 -0.30489,0.11667 -0.30489,-1.16666 z M 998.12991,931 c 0.0133,-1.1 0.163,-1.46927 0.33206,-0.82067 0.169,0.64867 0.15794,1.54867 -0.0247,2 -0.1826,0.4514 -0.32087,-0.0793 -0.30734,-1.17933 z M 870.58158,828.83333 c -0.8292,-1.0574 -0.80567,-1.08093 0.25173,-0.25173 1.11047,0.87093 1.46367,1.4184 0.91493,1.4184 -0.1384,0 -0.6634,-0.525 -1.16666,-1.16667 z m -78.7066,-23.28873 c 0.48126,-0.1926 1.05626,-0.16893 1.2778,0.0527 0.22153,0.22153 -0.17227,0.37913 -0.875,0.3502 -0.77667,-0.032 -0.9346,-0.19 -0.4028,-0.4028 z m 7.625,-82.02213 c 1.00833,-0.15274 2.65833,-0.15274 3.66666,0 1.00834,0.1528 0.18334,0.27773 -1.83333,0.27773 -2.01667,0 -2.84167,-0.12493 -1.83333,-0.27773 z m -479.31321,-34.68 c 1.75273,-0.13774 4.45273,-0.13614 6,0.007 1.54727,0.1398 0.11322,0.25254 -3.18678,0.25047 -3.3,0 -4.56595,-0.1164 -2.81322,-0.2542 z m 449.72814,-84.00914 c -0.8292,-1.05737 -0.80566,-1.08095 0.25174,-0.2517 0.64166,0.50323 1.16666,1.02823 1.16666,1.16666 0,0.5487 -0.54746,0.19554 -1.4184,-0.91496 z M 313.20832,592.21126 c 0.48125,-0.19258 1.05626,-0.1689 1.27778,0.0526 0.22153,0.22153 -0.17222,0.37909 -0.875,0.35015 -0.77663,-0.032 -0.9346,-0.18996 -0.40278,-0.40278 z m 13.96611,-0.68277 c 0.82927,-0.15946 2.02927,-0.1534 2.66667,0.0135 0.63739,0.16686 -0.0411,0.29733 -1.50778,0.28993 -1.46666,-0.007 -1.98816,-0.14392 -1.15889,-0.30338 z m 29.67158,0.01 c 0.64865,-0.16903 1.54865,-0.15792 2,0.0247 0.45135,0.18262 -0.0793,0.32091 -1.17935,0.30733 -1.1,-0.0136 -1.4693,-0.163 -0.82065,-0.33203 z m 391.0689,-9.37136 c -0.8292,-1.05738 -0.80566,-1.08096 0.25174,-0.25171 0.64166,0.50323 1.16666,1.02823 1.16666,1.16667 0,0.54869 -0.54746,0.19554 -1.4184,-0.91496 z m -22,-22.66667 c -0.8292,-1.05737 -0.80566,-1.08095 0.25174,-0.25171 0.64166,0.50324 1.16666,1.02824 1.16666,1.16667 0,0.54869 -0.54746,0.19554 -1.4184,-0.91496 z m -22,-22.66667 c -0.8292,-1.05737 -0.80566,-1.08095 0.25174,-0.2517 0.64166,0.50323 1.16666,1.02823 1.16666,1.16666 0,0.5487 -0.54746,0.19554 -1.4184,-0.91496 z m -22.3116,-23 -1.27,-1.5 1.5,1.27 c 1.4096,1.19348 1.80347,1.73 1.27,1.73 -0.12653,0 -0.80153,-0.675 -1.5,-1.5 z m -22,-22.66666 -1.26999,-1.5 1.5,1.26999 c 1.40962,1.19348 1.80349,1.73001 1.26999,1.73001 -0.12651,0 -0.80151,-0.675 -1.5,-1.5 z m -22.35503,-23 c -0.82925,-1.05738 -0.80567,-1.08096 0.2517,-0.25171 0.64167,0.50323 1.16667,1.02823 1.16667,1.16667 0,0.54869 -0.54746,0.19554 -1.41837,-0.91496 z M 615.28286,445.5 l -1.61621,-1.83333 1.83333,1.6162 c 1.00834,0.88892 1.83334,1.71392 1.83334,1.83334 0,0.52285 -0.53987,0.0973 -2.05046,-1.61621 z m -22.03458,-22.66667 c -0.82925,-1.05737 -0.80567,-1.08095 0.2517,-0.2517 1.1105,0.87091 1.46366,1.41837 0.91496,1.41837 -0.13843,0 -0.66343,-0.525 -1.16666,-1.16667 z M 1200,185.08163 c 0,-0.13844 0.525,-0.66344 1.1666,-1.16667 1.0574,-0.82925 1.081,-0.80567 0.2518,0.25171 -0.871,1.1105 -1.4184,1.46365 -1.4184,0.91496 z"
         id="path24" />
      <path
         style="fill:#86cb77;stroke-width:0.666667"
         d="m 353.87499,1132.2113 c 0.48125,-0.1926 1.05625,-0.169 1.27778,0.053 0.22153,0.2216 -0.17223,0.3792 -0.875,0.3502 -0.77663,-0.032 -0.9346,-0.19 -0.40278,-0.4028 z m 473.33332,0 c 0.48127,-0.1926 1.05627,-0.169 1.2778,0.053 0.22153,0.2216 -0.17227,0.3792 -0.875,0.3502 -0.77667,-0.032 -0.9346,-0.19 -0.4028,-0.4028 z m 139.51093,-55.9335 c 0.032,-0.7767 0.19,-0.9346 0.4028,-0.4028 0.1926,0.4813 0.16893,1.0563 -0.0527,1.2778 -0.22153,0.2215 -0.37913,-0.1723 -0.3502,-0.875 z m -142.53993,-25.4065 c 0.64867,-0.169 1.54867,-0.1579 2,0.025 0.4514,0.1826 -0.0793,0.3209 -1.17933,0.3073 -1.1,-0.013 -1.46927,-0.163 -0.82067,-0.332 z M 998.71924,950.2778 c 0.032,-0.77667 0.19,-0.9346 0.4028,-0.4028 0.1926,0.48127 0.16893,1.05627 -0.0527,1.2778 -0.22153,0.22153 -0.37913,-0.17227 -0.3502,-0.875 z M 601.46328,938.33333 c 0.0136,-1.1 0.163,-1.46926 0.33203,-0.82066 0.16903,0.64866 0.15791,1.54866 -0.0247,2 -0.18262,0.4514 -0.32092,-0.0793 -0.30733,-1.17934 z m 0,-7.33333 c 0.0136,-1.1 0.163,-1.46927 0.33203,-0.82067 0.16903,0.64867 0.15791,1.54867 -0.0247,2 -0.18262,0.4514 -0.32092,-0.0793 -0.30733,-1.17933 z m 396.64196,-3 c 0,-0.91667 0.15133,-1.29167 0.33627,-0.83333 0.18493,0.45833 0.18493,1.20833 0,1.66666 -0.18494,0.45834 -0.33627,0.0833 -0.33627,-0.83333 z m -396.58125,-5.66667 c 0.005,-1.83333 0.13448,-2.5042 0.28771,-1.49086 0.15324,1.0134 0.14914,2.5134 -0.009,3.33333 -0.15824,0.82 -0.28362,-0.009 -0.27862,-1.84247 z m 395.86192,-6.7222 c 0.032,-0.77666 0.19,-0.9346 0.4028,-0.4028 0.1926,0.48127 0.16893,1.05627 -0.0527,1.2778 -0.22153,0.22154 -0.37913,-0.17226 -0.3502,-0.875 z M 172.96863,846.5 l -2.6353,-2.83333 2.83333,2.63526 C 174.725,847.7514 176,849.0264 176,849.13527 c 0,0.5044 -0.58057,-2.7e-4 -3.03137,-2.63527 z m 559.03135,-10.75173 c 0,-0.1384 0.525,-0.6634 1.16667,-1.16667 1.0574,-0.8292 1.08093,-0.80567 0.25173,0.25173 -0.87093,1.11047 -1.4184,1.46367 -1.4184,0.91494 z M 873.28284,831.5 l -1.6162,-1.83333 1.83334,1.6162 c 1.71353,1.5106 2.13906,2.05046 1.6162,2.05046 -0.1194,0 -0.9444,-0.825 -1.83334,-1.83333 z m -79.40786,-25.9554 c 0.48126,-0.1926 1.05626,-0.16893 1.2778,0.0527 0.22153,0.22153 -0.17227,0.37913 -0.875,0.3502 -0.77667,-0.032 -0.9346,-0.19 -0.4028,-0.4028 z M 248.71929,741.61113 c 0.032,-0.77666 0.18996,-0.9346 0.40278,-0.4028 0.19258,0.48127 0.1689,1.05627 -0.0526,1.2778 -0.22153,0.22154 -0.3791,-0.17226 -0.35015,-0.875 z m 545.11402,-18.0816 c 0.825,-0.15893 2.175,-0.15893 3,0 0.825,0.15887 0.15,0.28887 -1.5,0.28887 -1.65,0 -2.325,-0.13 -1.5,-0.28887 z m 11.33333,0.0287 c 0.45834,-0.18493 1.20834,-0.18493 1.66667,0 0.45833,0.18493 0.0833,0.33627 -0.83333,0.33627 -0.91667,0 -1.29167,-0.15134 -0.83334,-0.33627 z m -16.22999,-99.05847 -1.27,-1.5 1.5,1.27 c 1.4096,1.19348 1.80346,1.73 1.27,1.73 -0.12654,0 -0.80154,-0.675 -1.5,-1.5 z m -21.6538,-22.33333 -1.6162,-1.83333 1.83333,1.6162 c 1.00833,0.88892 1.83333,1.71392 1.83333,1.83334 0,0.52285 -0.53986,0.0973 -2.05046,-1.61621 z M 324.54166,591.54459 c 0.48124,-0.19258 1.05625,-0.1689 1.27778,0.0526 0.22152,0.22153 -0.17223,0.3791 -0.875,0.35015 -0.77664,-0.032 -0.9346,-0.18996 -0.40278,-0.40277 z m 35.33333,0 c 0.48125,-0.19258 1.05625,-0.1689 1.27778,0.0526 0.22153,0.22153 -0.17223,0.3791 -0.875,0.35015 -0.77663,-0.032 -0.9346,-0.18996 -0.40278,-0.40277 z M 744.95805,579.16667 742.99998,577 l 2.16667,1.95806 c 2.01966,1.82519 2.47313,2.37527 1.95806,2.37527 -0.11473,0 -1.08973,-0.975 -2.16666,-2.16666 z m -22,-22.66667 -1.95807,-2.16667 2.16667,1.95806 c 2.01966,1.82519 2.47313,2.37528 1.95806,2.37528 -0.11473,0 -1.08973,-0.975 -2.16666,-2.16667 z m -22,-22.66667 -1.95807,-2.16666 2.16667,1.95806 c 2.01966,1.82518 2.47313,2.37527 1.95806,2.37527 -0.11473,0 -1.08973,-0.975 -2.16666,-2.16667 z m -22.34187,-23 -1.6162,-1.83333 1.83333,1.61621 c 1.00834,0.88892 1.83334,1.71392 1.83334,1.83333 0,0.52285 -0.53987,0.0973 -2.05047,-1.61621 z m -21.99999,-22.66666 -1.61621,-1.83334 1.83334,1.61621 c 1.00833,0.88892 1.83333,1.71392 1.83333,1.83333 0,0.52286 -0.53987,0.0973 -2.05046,-1.6162 z m -22,-22.66667 -1.61621,-1.83333 1.83334,1.6162 c 1.00833,0.88892 1.83333,1.71392 1.83333,1.83334 0,0.52285 -0.53987,0.0973 -2.05046,-1.61621 z m -22.34621,-23 -1.27,-1.5 1.5,1.26999 c 1.40963,1.19348 1.8035,1.73001 1.27,1.73001 -0.12651,0 -0.80151,-0.675 -1.5,-1.5 z m -21.65379,-22.33333 -1.61621,-1.83334 1.83334,1.61621 c 1.00833,0.88892 1.83333,1.71392 1.83333,1.83333 0,0.52286 -0.53987,0.0973 -2.05046,-1.6162 z m 82.32046,-102.33334 -1.27,-1.5 1.5,1.27 c 0.825,0.69849 1.5,1.37349 1.5,1.5 0,0.5335 -0.53654,0.13963 -1.73,-1.27 z M 1119.4386,10 c 0,-0.9166667 0.1513,-1.2916667 0.3362,-0.8333333 0.185,0.4583333 0.185,1.2083333 0,1.6666663 -0.1849,0.458334 -0.3362,0.08333 -0.3362,-0.833333 z"
         id="path22" />
      <path
         style="fill:#74c462;stroke-width:0.666667"
         d="m 321.15179,1132.8522 c 1.18349,-0.1473 3.28349,-0.1497 4.66667,-0.01 1.38317,0.1444 0.41486,0.2648 -2.1518,0.2678 -2.56667,0 -3.69836,-0.1151 -2.51487,-0.2624 z m 476.68152,0.039 c 0.45833,-0.1849 1.20833,-0.1849 1.66667,0 0.45833,0.185 0.0833,0.3363 -0.83334,0.3363 -0.91666,0 -1.29166,-0.1513 -0.83333,-0.3363 z M 963.66664,1084 c 0.66367,-0.7333 1.35667,-1.3333 1.54,-1.3333 0.18333,0 -0.20967,0.6 -0.87333,1.3333 -0.66367,0.7333 -1.35667,1.3333 -1.54,1.3333 -0.18334,0 0.20966,-0.6 0.87333,-1.3333 z m -460.33332,-4.2517 c 0,-0.1384 0.525,-0.6634 1.16667,-1.1667 1.05737,-0.8292 1.08095,-0.8057 0.2517,0.2517 -0.87091,1.1105 -1.41837,1.4637 -1.41837,0.915 z m 317.83332,-28.8565 c 0.45834,-0.1849 1.20834,-0.1849 1.66667,0 0.45833,0.1849 0.0833,0.3363 -0.83333,0.3363 -0.91667,0 -1.29167,-0.1514 -0.83334,-0.3363 z m -81.91839,-30.0585 c -0.8292,-1.0574 -0.80567,-1.0809 0.25173,-0.2517 1.11047,0.8709 1.46367,1.4184 0.91493,1.4184 -0.1384,0 -0.6634,-0.525 -1.16666,-1.1667 z m -189.8623,-68.5555 c 0.032,-0.77667 0.18996,-0.9346 0.40277,-0.4028 0.19258,0.48127 0.1689,1.05627 -0.0526,1.2778 -0.22152,0.22153 -0.37909,-0.17227 -0.35014,-0.875 z m 449.41062,-4.61113 c 0.0133,-1.1 0.163,-1.46927 0.33207,-0.82067 0.169,0.64867 0.15793,1.54867 -0.0247,2 -0.1826,0.4514 -0.32086,-0.0793 -0.30733,-1.17933 z m -397.33329,-6 c 0.0136,-1.1 0.163,-1.46927 0.33203,-0.82067 0.16903,0.64867 0.15791,1.54867 -0.0247,2 -0.18262,0.4514 -0.32092,-0.0793 -0.30733,-1.17933 z m 0.0247,-14.33334 c 0,-1.28333 0.1372,-1.80833 0.30488,-1.16666 0.16768,0.64166 0.16768,1.69166 0,2.33333 -0.16768,0.64167 -0.30488,0.11667 -0.30488,-1.16667 z m 0,-10 c 0,-1.28333 0.1372,-1.80833 0.30488,-1.16666 0.16768,0.64166 0.16768,1.69166 0,2.33333 -0.16768,0.64167 -0.30488,0.11667 -0.30488,-1.16667 z M 176.93666,850.5 l -1.27,-1.5 1.5,1.27 c 0.825,0.69847 1.5,1.37347 1.5,1.5 0,0.53347 -0.53652,0.1396 -1.73,-1.27 z m -8,-8 -1.27,-1.5 1.5,1.27 c 0.825,0.69847 1.5,1.37347 1.5,1.5 0,0.53347 -0.53652,0.1396 -1.73,-1.27 z m 566.06332,-9.83333 c 0.66367,-0.73334 1.35667,-1.33334 1.54,-1.33334 0.18333,0 -0.20967,0.6 -0.87333,1.33334 -0.66367,0.73333 -1.35667,1.33333 -1.54,1.33333 -0.18334,0 0.20966,-0.6 0.87333,-1.33333 z m 60.875,-27.12207 c 0.48126,-0.1926 1.05626,-0.16893 1.2778,0.0527 0.22153,0.22153 -0.17227,0.37913 -0.875,0.3502 -0.77667,-0.032 -0.9346,-0.19 -0.4028,-0.4028 z m 142.03993,-29.37793 c -0.8292,-1.0574 -0.80567,-1.08094 0.25173,-0.25174 0.64167,0.50327 1.16667,1.02827 1.16667,1.16667 0,0.54873 -0.54747,0.19553 -1.4184,-0.91493 z M 136.19067,750.33333 c 0.005,-1.83333 0.13448,-2.5042 0.28771,-1.49086 0.15324,1.0134 0.14914,2.5134 -0.009,3.33333 -0.15824,0.82 -0.28362,-0.009 -0.27862,-1.84247 z m 112.58125,-11 c 0,-0.91666 0.15132,-1.29166 0.33626,-0.83333 0.18494,0.45833 0.18494,1.20833 0,1.66667 -0.18494,0.45833 -0.33626,0.0833 -0.33626,-0.83334 z m 541.72806,-15.77486 c 0.45833,-0.18494 1.20833,-0.18494 1.66666,0 0.45834,0.18493 0.0833,0.33626 -0.83333,0.33626 -0.91666,0 -1.29166,-0.15133 -0.83333,-0.33626 z m 17.33333,0 c 0.45833,-0.18494 1.20833,-0.18494 1.66667,0 0.45833,0.18493 0.0833,0.33626 -0.83334,0.33626 -0.91666,0 -1.29166,-0.15133 -0.83333,-0.33626 z M 179.33333,647 c 1.24385,-1.28333 2.41155,-2.33333 2.59489,-2.33333 0.18333,0 -0.68437,1.05 -1.92822,2.33333 -1.24386,1.28333 -2.41156,2.33333 -2.59489,2.33333 -0.18333,0 0.68437,-1.05 1.92822,-2.33333 z m 627.33331,-20.58504 c 0,-0.13843 0.525,-0.66343 1.16667,-1.16667 1.0574,-0.82924 1.08093,-0.80566 0.25173,0.25171 -0.87093,1.1105 -1.4184,1.46365 -1.4184,0.91496 z M 785.62471,621.16667 783.66665,619 l 2.16666,1.95806 c 2.01967,1.82519 2.47314,2.37527 1.95807,2.37527 -0.11473,0 -1.08973,-0.975 -2.16667,-2.16666 z m -22,-22.66667 -1.95806,-2.16667 2.16666,1.95806 c 2.01967,1.82519 2.47314,2.37528 1.95807,2.37528 -0.11473,0 -1.08973,-0.975 -2.16667,-2.16667 z m -441.08305,-6.95541 c 0.48124,-0.19258 1.05625,-0.1689 1.27778,0.0526 0.22152,0.22153 -0.17223,0.3791 -0.875,0.35015 -0.77664,-0.032 -0.9346,-0.18996 -0.40278,-0.40277 z M 741.28285,575.5 l -1.6162,-1.83333 1.83333,1.6162 c 1.00833,0.88892 1.83333,1.71392 1.83333,1.83334 0,0.52285 -0.53986,0.0973 -2.05046,-1.61621 z m -22,-22.66667 -1.6162,-1.83333 1.83333,1.61621 c 1.00833,0.88892 1.83333,1.71392 1.83333,1.83333 0,0.52285 -0.53986,0.0973 -2.05046,-1.61621 z m -22,-22.66666 -1.6162,-1.83334 1.83333,1.61621 c 1.00833,0.88892 1.83333,1.71392 1.83333,1.83333 0,0.52286 -0.53986,0.0973 -2.05046,-1.6162 z m -22,-22.66667 -1.6162,-1.83333 1.83333,1.6162 c 1.00833,0.88892 1.83333,1.71392 1.83333,1.83334 0,0.52285 -0.53986,0.0973 -2.05046,-1.61621 z M 653.28286,484.83333 651.66665,483 l 1.83333,1.61621 c 1.00834,0.88892 1.83334,1.71392 1.83334,1.83333 0,0.52285 -0.53987,0.0973 -2.05046,-1.61621 z m -22,-22.66666 -1.61621,-1.83334 1.83333,1.61621 c 1.71353,1.51059 2.13906,2.05046 1.61621,2.05046 -0.11941,0 -0.94441,-0.825 -1.83333,-1.83333 z m -22.32482,-23 -1.95806,-2.16667 2.16667,1.95806 c 2.01964,1.82519 2.4731,2.37527 1.95806,2.37527 -0.11473,0 -1.08973,-0.975 -2.16667,-2.16666 z"
         id="path20" />
      <path
         style="fill:#5ab844;stroke-width:0.666667"
         d="m 2.3319235,636.66667 c 0,-344.85 0.075634,-485.925 0.1680748,-313.5 0.092441,172.425 0.092441,454.575 0,627 -0.092441,172.42503 -0.1680748,31.35 -0.1680748,-313.5 z M 1214.9983,727.33333 c 0,-294.98333 0.076,-415.65833 0.1683,-268.16666 0.093,147.49166 0.093,388.84166 0,536.33333 -0.093,147.4917 -0.1683,26.8167 -0.1683,-268.16667 z M 317.87499,1132.8779 c 0.48125,-0.1926 1.05625,-0.1689 1.27778,0.053 0.22153,0.2215 -0.17223,0.3791 -0.875,0.3502 -0.77663,-0.032 -0.9346,-0.19 -0.40278,-0.4028 z m 10.95833,-0.01 c 0.64167,-0.1678 1.69167,-0.1678 2.33334,0 0.64166,0.1676 0.11666,0.3048 -1.16667,0.3048 -1.28333,0 -1.80833,-0.1372 -1.16667,-0.3048 z m 464.33332,-0.011 c 0.825,-0.1589 2.175,-0.1589 3,0 0.825,0.1589 0.15,0.2889 -1.5,0.2889 -1.65,0 -2.325,-0.13 -1.5,-0.2889 z m 7.33334,0.029 c 0.45833,-0.185 1.20833,-0.185 1.66666,0 0.45834,0.1849 0.0833,0.3362 -0.83333,0.3362 -0.91667,0 -1.29167,-0.1513 -0.83333,-0.3362 z m -443.29166,-0.6806 c 0.48125,-0.1926 1.05626,-0.1689 1.27778,0.053 0.22153,0.2215 -0.17222,0.3791 -0.875,0.3502 -0.77663,-0.032 -0.9346,-0.19 -0.40278,-0.4028 z m 473.33332,0 c 0.48127,-0.1926 1.05627,-0.1689 1.2778,0.053 0.22154,0.2215 -0.17226,0.3791 -0.875,0.3502 -0.77666,-0.032 -0.9346,-0.19 -0.4028,-0.4028 z m -329.20832,-50.4604 c 0,-0.1384 0.525,-0.6634 1.16667,-1.1667 1.05737,-0.8292 1.08095,-0.8057 0.2517,0.2517 -0.87091,1.1105 -1.41837,1.4637 -1.41837,0.915 z m 155.31056,-8.915 -3.6439,-3.8333 3.83334,3.6439 c 3.56128,3.3853 4.13872,4.0228 3.64389,4.0228 -0.10419,0 -1.82919,-1.725 -3.83333,-3.8334 z m -146.64389,0.2483 c 0,-0.1384 0.525,-0.6634 1.16666,-1.1667 1.05738,-0.8292 1.08096,-0.8056 0.25171,0.2518 -0.87091,1.1104 -1.41837,1.4636 -1.41837,0.9149 z m 309.20832,-22.2037 c 0.48127,-0.1926 1.05627,-0.1689 1.2778,0.053 0.22153,0.2215 -0.17227,0.3791 -0.875,0.3502 -0.77667,-0.032 -0.9346,-0.19 -0.4028,-0.4028 z m -392.27166,-99.71123 -1.26999,-1.5 1.49999,1.27 c 1.40963,1.19346 1.8035,1.73 1.27,1.73 -0.12651,0 -0.80151,-0.675 -1.5,-1.5 z m 174.50193,-6.5 c 0,-0.91667 0.15132,-1.29167 0.33626,-0.83334 0.18494,0.45834 0.18494,1.20834 0,1.66667 -0.18494,0.45833 -0.33626,0.0833 -0.33626,-0.83333 z m 397.35799,-0.33334 c 0.0133,-1.1 0.163,-1.46926 0.33207,-0.82066 0.169,0.64866 0.15793,1.54866 -0.0247,2 -0.1826,0.4514 -0.32086,-0.0793 -0.30733,-1.17934 z m -0.744,-20.05553 c 0.032,-0.77667 0.19,-0.9346 0.4028,-0.4028 0.1926,0.48127 0.16894,1.05627 -0.0527,1.2778 -0.22154,0.22153 -0.37914,-0.17227 -0.3502,-0.875 z M 601.46328,913.66667 c 0.0136,-1.1 0.163,-1.46927 0.33203,-0.82067 0.16903,0.64867 0.15791,1.54867 -0.0247,2 -0.18262,0.4514 -0.32092,-0.0793 -0.30733,-1.17933 z m 196.37003,-108.1082 c 0.45833,-0.18494 1.20833,-0.18494 1.66667,0 0.45833,0.18493 0.0833,0.33626 -0.83334,0.33626 -0.91666,0 -1.29166,-0.15133 -0.83333,-0.33626 z m 18.70833,-0.014 c 0.48127,-0.1926 1.05627,-0.16894 1.2778,0.0527 0.22154,0.22154 -0.17226,0.37914 -0.875,0.3502 -0.77666,-0.032 -0.9346,-0.19 -0.4028,-0.4028 z M 656.66665,784.33333 c 0.86117,-0.91666 1.71575,-1.66666 1.89909,-1.66666 0.18333,0 -0.37126,0.75 -1.23242,1.66666 C 656.47215,785.25 655.61756,786 655.43423,786 c -0.18333,0 0.37125,-0.75 1.23242,-1.66667 z M 662.63879,778.5 c 2.76264,-2.94347 3.36119,-3.47273 3.36119,-2.97213 0,0.107 -1.425,1.532 -3.16666,3.16666 l -3.16667,2.97214 z m 277.63118,0 -1.27,-1.5 1.5,1.27 c 1.4096,1.19347 1.80347,1.73 1.27,1.73 -0.12653,0 -0.80153,-0.675 -1.5,-1.5 z m -4.98713,-5 -1.6162,-1.83333 1.83333,1.6162 c 1.00834,0.88893 1.83334,1.71393 1.83334,1.83333 0,0.52287 -0.53987,0.0973 -2.05047,-1.6162 z m -676.32479,-9 -1.95806,-2.16667 2.16667,1.95807 c 1.19167,1.07693 2.16667,2.05193 2.16667,2.16667 0,0.51506 -0.55009,0.0613 -2.37528,-1.95807 z m -122.80339,-9.16667 c 0,-1.28333 0.1372,-1.80833 0.30489,-1.16666 0.16768,0.64166 0.16768,1.69166 0,2.33333 -0.16769,0.64167 -0.30489,0.11667 -0.30489,-1.16667 z m -0.0247,-9.66666 c 0.0136,-1.1 0.163,-1.46927 0.33202,-0.82067 0.16903,0.64867 0.15792,1.54867 -0.0247,2 -0.18262,0.4514 -0.32091,-0.0793 -0.30733,-1.17933 z m 345.86999,-7.25174 c 0,-0.1384 0.525,-0.6634 1.16666,-1.16666 1.05738,-0.8292 1.08096,-0.80567 0.25171,0.25173 -0.87091,1.11047 -1.41837,1.46367 -1.41837,0.91493 z m 328.49999,-14.85646 c 0.45833,-0.18494 1.20833,-0.18494 1.66666,0 0.45834,0.18493 0.0833,0.33626 -0.83333,0.33626 -0.91667,0 -1.29167,-0.15133 -0.83333,-0.33626 z M 337.20832,689.5446 c 0.48125,-0.1926 1.05626,-0.16893 1.27778,0.0527 0.22153,0.22153 -0.17222,0.37913 -0.875,0.3502 -0.77663,-0.032 -0.9346,-0.19 -0.40278,-0.4028 z M 175.33333,651 c 0.86117,-0.91667 1.71575,-1.66667 1.89909,-1.66667 0.18333,0 -0.37126,0.75 -1.23242,1.66667 -0.86117,0.91667 -1.71576,1.66667 -1.89909,1.66667 -0.18333,0 0.37125,-0.75 1.23242,-1.66667 z m 7.66666,-7.66667 C 183.66365,642.6 184.35665,642 184.53998,642 c 0.18333,0 -0.20966,0.6 -0.87332,1.33333 -0.66366,0.73334 -1.35665,1.33334 -1.53998,1.33334 -0.18334,0 0.20966,-0.6 0.87331,-1.33334 z m 597.66666,-27 c -1.61934,-1.65 -2.79427,-3 -2.61094,-3 0.18334,0 1.65827,1.35 3.2776,3 1.61934,1.65 2.79427,3 2.61094,3 -0.18334,0 -1.65827,-1.35 -3.2776,-3 z m 49.33333,-15.91837 c 0,-0.13843 0.525,-0.66343 1.16666,-1.16667 1.0574,-0.82924 1.08094,-0.80566 0.25174,0.25171 -0.87094,1.1105 -1.4184,1.46365 -1.4184,0.91496 z m -71.33333,-6.74829 c -1.61934,-1.65 -2.79427,-3 -2.61094,-3 0.18334,0 1.65827,1.35 3.2776,3 1.61934,1.65 2.79427,3 2.61094,3 -0.18334,0 -1.65827,-1.35 -3.2776,-3 z m -438.12499,-2.12208 c 0.48124,-0.19258 1.05625,-0.1689 1.27778,0.0526 0.22152,0.22153 -0.17223,0.3791 -0.875,0.35015 -0.77664,-0.032 -0.9346,-0.18996 -0.40278,-0.40277 z m 42,0 c 0.48124,-0.19258 1.05625,-0.1689 1.27778,0.0526 0.22152,0.22153 -0.17223,0.3791 -0.875,0.35015 -0.77664,-0.032 -0.9346,-0.18996 -0.40278,-0.40277 z m 489.45832,-15.7963 c 0,-0.13843 0.525,-0.66343 1.16666,-1.16666 1.0574,-0.82925 1.08094,-0.80567 0.25174,0.2517 -0.87094,1.1105 -1.4184,1.46366 -1.4184,0.91496 z M 736.66665,571 c -1.61934,-1.65 -2.79427,-3 -2.61094,-3 0.18334,0 1.65827,1.35 3.2776,3 1.61934,1.65 2.79427,3 2.61094,3 -0.18334,0 -1.65827,-1.35 -3.2776,-3 z m 120.66666,-1.25171 c 0,-0.13843 0.525,-0.66343 1.16667,-1.16666 1.0574,-0.82925 1.08093,-0.80567 0.25173,0.2517 -0.87093,1.1105 -1.4184,1.46366 -1.4184,0.91496 z m -143.02506,-21.91496 -3.30827,-3.5 3.5,3.30828 c 3.25227,3.0741 3.80573,3.69172 3.30827,3.69172 -0.10547,0 -1.68047,-1.575 -3.5,-3.5 z m 165.02506,-2.7517 c 0,-0.13844 0.525,-0.66344 1.16667,-1.16667 1.0574,-0.82925 1.08093,-0.80567 0.25173,0.25171 -0.87093,1.1105 -1.4184,1.46365 -1.4184,0.91496 z m 5.33333,-6 c 0,-0.13844 0.525,-0.66344 1.16667,-1.16667 1.0574,-0.82925 1.08093,-0.80567 0.25173,0.25171 -0.87093,1.1105 -1.4184,1.46365 -1.4184,0.91496 z m -192.35839,-13.91496 -3.30827,-3.5 3.5,3.30827 c 3.25227,3.07411 3.80573,3.69173 3.30827,3.69173 -0.10547,0 -1.68047,-1.575 -3.5,-3.5 z m 214.35839,-10.75171 c 0,-0.13843 0.525,-0.66343 1.16667,-1.16667 1.0574,-0.82924 1.08093,-0.80566 0.25173,0.25171 -0.87093,1.1105 -1.4184,1.46365 -1.4184,0.91496 z M 670.30825,502.5 l -3.30827,-3.5 3.5,3.30827 c 3.25227,3.07411 3.80573,3.69173 3.30827,3.69173 -0.10547,0 -1.68047,-1.575 -3.5,-3.5 z m 263.69172,-18.75171 c 0,-0.13843 0.525,-0.66343 1.16667,-1.16666 1.0574,-0.82925 1.08093,-0.80567 0.25173,0.2517 -0.87093,1.1105 -1.4184,1.46366 -1.4184,0.91496 z m -285.69171,-3.91496 -3.30828,-3.5 3.5,3.30828 c 3.25226,3.0741 3.80574,3.69172 3.30828,3.69172 -0.10546,0 -1.68046,-1.575 -3.5,-3.5 z m -22,-22.66666 -3.30828,-3.5 3.5,3.30827 c 3.25226,3.07411 3.80574,3.69173 3.30828,3.69173 -0.10546,0 -1.68046,-1.575 -3.5,-3.5 z m 335.02505,-4.08504 c 0,-0.13844 0.525,-0.66344 1.16666,-1.16667 1.0574,-0.82925 1.08094,-0.80567 0.25174,0.25171 -0.87094,1.1105 -1.4184,1.46365 -1.4184,0.91496 z m -179.4184,-14.2483 c -0.8292,-1.05737 -0.80566,-1.08095 0.25174,-0.2517 0.64166,0.50323 1.16666,1.02823 1.16666,1.16666 0,0.5487 -0.54746,0.19554 -1.4184,-0.91496 z m -177.91493,-4.5 c -1.61935,-1.65 -2.79428,-3 -2.61094,-3 0.18333,0 1.65826,1.35 3.27761,3 1.61935,1.65 2.79428,3 2.61095,3 -0.18334,0 -1.65826,-1.35 -3.27762,-3 z m 171.91493,-2.16666 c -0.8292,-1.05738 -0.80566,-1.08096 0.25174,-0.25171 0.64166,0.50323 1.16666,1.02823 1.16666,1.16667 0,0.54869 -0.54746,0.19554 -1.4184,-0.91496 z m 207.4184,-3.75171 c 0,-0.13843 0.525,-0.66343 1.16666,-1.16667 1.0574,-0.82924 1.08094,-0.80566 0.25174,0.25171 -0.87094,1.1105 -1.4184,1.46365 -1.4184,0.91496 z m 5.33333,-6 c 0,-0.13843 0.525,-0.66343 1.16667,-1.16667 1.0574,-0.82924 1.08093,-0.80566 0.25173,0.25171 -0.87093,1.1105 -1.4184,1.46365 -1.4184,0.91496 z M 752.58158,406.16667 c -0.8292,-1.05738 -0.80567,-1.08096 0.25173,-0.25171 0.64167,0.50323 1.16667,1.02823 1.16667,1.16667 0,0.54869 -0.54747,0.19554 -1.4184,-0.91496 z m -6,-6.66667 c -0.8292,-1.05737 -0.80567,-1.08095 0.25173,-0.25171 0.64167,0.50324 1.16667,1.02824 1.16667,1.16667 0,0.54869 -0.54747,0.19554 -1.4184,-0.91496 z m 264.08502,-1.75171 c 0,-0.13843 0.525,-0.66343 1.1667,-1.16666 1.0574,-0.82925 1.0809,-0.80567 0.2517,0.2517 -0.8709,1.1105 -1.4184,1.46366 -1.4184,0.91496 z m 5.3334,-6 c 0,-0.13843 0.525,-0.66343 1.1666,-1.16666 1.0574,-0.82925 1.081,-0.80567 0.2518,0.2517 -0.871,1.1105 -1.4184,1.46366 -1.4184,0.91496 z M 729.24825,380.16667 c -0.8292,-1.05738 -0.80567,-1.08096 0.25173,-0.25171 0.64167,0.50323 1.16667,1.02823 1.16667,1.16667 0,0.54869 -0.54747,0.19554 -1.4184,-0.91496 z m -6,-6.66667 c -0.8292,-1.05737 -0.80567,-1.08095 0.25173,-0.25171 0.64167,0.50324 1.16667,1.02824 1.16667,1.16667 0,0.54869 -0.54747,0.19554 -1.4184,-0.91496 z m -6,-6.66667 c -0.8292,-1.05737 -0.80567,-1.08095 0.25173,-0.2517 0.64167,0.50323 1.16667,1.02823 1.16667,1.16666 0,0.5487 -0.54747,0.19554 -1.4184,-0.91496 z M 1038,367.08163 c 0,-0.13844 0.525,-0.66344 1.1666,-1.16667 1.0574,-0.82925 1.081,-0.80567 0.2518,0.25171 -0.871,1.1105 -1.4184,1.46365 -1.4184,0.91496 z m -326.75175,-6.91496 c -0.8292,-1.05738 -0.80567,-1.08096 0.25173,-0.25171 0.64167,0.50323 1.16667,1.02823 1.16667,1.16667 0,0.54869 -0.54747,0.19554 -1.4184,-0.91496 z m -17.33334,-19.33334 c -0.8292,-1.05737 -0.80566,-1.08095 0.25174,-0.2517 0.64166,0.50323 1.16666,1.02823 1.16666,1.16666 0,0.5487 -0.54746,0.19554 -1.4184,-0.91496 z m 371.41839,-4.41837 c 0,-0.13843 0.525,-0.66343 1.1667,-1.16667 1.0574,-0.82924 1.0809,-0.80566 0.2517,0.25171 -0.8709,1.1105 -1.4184,1.46365 -1.4184,0.91496 z m -377.41839,-2.24829 c -0.8292,-1.05738 -0.80566,-1.08096 0.25174,-0.25171 1.11046,0.87091 1.46366,1.41837 0.91493,1.41837 -0.1384,0 -0.6634,-0.525 -1.16667,-1.16666 z m -6,-6.66667 c -0.8292,-1.05737 -0.80566,-1.08095 0.25174,-0.25171 1.11046,0.87092 1.46366,1.41838 0.91493,1.41838 -0.1384,0 -0.6634,-0.525 -1.16667,-1.16667 z M 1082,317.74829 c 0,-0.13843 0.525,-0.66343 1.1666,-1.16666 1.0574,-0.82925 1.081,-0.80567 0.2518,0.2517 -0.871,1.1105 -1.4184,1.46366 -1.4184,0.91496 z m 10.6666,-12 c 0,-0.13843 0.525,-0.66343 1.1667,-1.16666 1.0574,-0.82925 1.0809,-0.80567 0.2517,0.2517 -0.8709,1.1105 -1.4184,1.46366 -1.4184,0.91496 z m 22,-24.66666 c 0,-0.13844 0.525,-0.66344 1.1667,-1.16667 1.0574,-0.82925 1.0809,-0.80567 0.2517,0.25171 -0.8709,1.1105 -1.4184,1.46365 -1.4184,0.91496 z m 5.3334,-6 c 0,-0.13844 0.525,-0.66344 1.1666,-1.16667 1.0574,-0.82925 1.081,-0.80567 0.2518,0.25171 -0.871,1.1105 -1.4184,1.46365 -1.4184,0.91496 z m 27.3333,-30.66667 c 0,-0.13843 0.525,-0.66343 1.1667,-1.16667 1.0574,-0.82924 1.0809,-0.80566 0.2517,0.25171 -0.8709,1.1105 -1.4184,1.46365 -1.4184,0.91496 z m 27.3333,-30.66667 c 0,-0.13843 0.525,-0.66343 1.1667,-1.16666 1.0574,-0.82925 1.0809,-0.80567 0.2517,0.2517 -0.8709,1.1105 -1.4184,1.46366 -1.4184,0.91496 z"
         id="path18" />
      <path
         style="fill:#42af29;stroke-width:0.666667"
         d="m 9.2944004,1271.3686 c -3.0394466,-0.9237 -4.5937851,-2.0358 -5.6208336,-4.0219 C 2.7775658,1265.614 2.6666666,1196.1514 2.6666666,636.66667 2.6666666,75.978753 2.7761135,7.72214 3.6779512,5.978178 4.2341577,4.9025931 5.6591576,3.4924911 6.8446178,2.8446179 8.8994904,1.7215966 34.647462,1.6576878 558.99998,1.4741189 c 302.5,-0.1059012 551.29402,-0.00967 552.87562,0.2138584 4.1487,0.5863265 6.8288,3.1940358 7.2656,7.069366 0.2033,1.8036797 0.01,3.6748977 -0.4793,4.5848637 C 1117.9202,14.72806 1094.2607,47.02492 954.81851,237 c -22.8764,31.16667 -66.39413,90.47285 -96.706,131.79151 -43.78733,59.68728 -55.631,75.41884 -57.63547,76.55556 -2.85453,1.61874 -7.4938,1.88865 -10.56893,0.61488 -1.2522,-0.51867 -22.99173,-24.22431 -59.68466,-65.0824 -40.7544,-45.38055 -58.46774,-64.6505 -60.27607,-65.57306 -4.8606,-2.47969 -10.4751,-1.39427 -14.38347,2.78068 -2.75294,2.94071 -65.37144,84.88755 -67.14969,87.87668 -1.63071,2.7411 -1.81214,8.1463 -0.36436,10.85494 1.588,2.97098 203.21972,210.33238 205.63512,211.47858 2.85513,1.35482 7.6762,1.319 10.60746,-0.0788 1.6322,-0.77835 34.08114,-36.72648 107.5226,-119.1176 57.85173,-64.90155 120.33496,-134.99419 138.85156,-155.76141 18.5167,-20.76723 60.1782,-67.51029 92.5812,-103.87348 63.0602,-70.76723 60.5396,-68.19874 65.5235,-66.76939 2.2237,0.63775 4.3068,2.2474 5.2929,4.08995 0.3639,0.68004 0.6058,217.04835 0.6036,539.87624 0,479.95852 -0.1138,538.95452 -1.0137,540.69462 -0.5555,1.0743 -1.9799,2.4834 -3.1654,3.1312 -2.0557,1.1234 -29.8543,1.183 -600.82205,1.2881 -329.26666,0.061 -599.43417,-0.1231 -600.3722496,-0.4082 z M 345.75344,1132.6655 c 12.14773,-0.3546 26.54773,-1.1065 32,-1.6708 54.97575,-5.6905 98.05669,-23.711 128.28663,-53.6614 27.03552,-26.7855 42.10512,-62.1327 43.86593,-102.89163 2.20622,-51.0696 -12.90235,-87.48714 -48.65121,-117.2682 -14.00188,-11.66447 -37.02094,-24.1384 -61.07952,-33.09874 -24.68403,-9.19333 -39.61606,-13.4006 -93.84195,-26.44133 -51.53027,-12.3924 -72.80379,-20.34347 -85.52837,-31.96673 -8.83918,-8.07414 -11.88232,-15.36547 -11.3231,-27.13 0.57032,-11.9978 4.75151,-21.43814 13.18363,-29.76627 9.92081,-9.7984 24.48891,-15.894 44.26058,-18.51947 13.88007,-1.84313 43.45722,-0.465 59.56976,2.77574 36.3301,7.30706 66.00084,20.48586 95.7516,42.52993 6.77773,5.022 7.49761,5.38813 11.1076,5.6492 6.97211,0.50433 6.43065,1.071 34.56769,-36.17733 13.86067,-18.349 25.54833,-34.01707 25.97258,-34.818 1.0662,-2.01274 0.96736,-7.90151 -0.16912,-10.07691 -1.23362,-2.36133 -3.35162,-4.27023 -11.39285,-10.26803 -36.49132,-27.21818 -79.42265,-45.96566 -123.33333,-53.85788 -22.16067,-3.983 -26.76977,-4.33064 -57.33333,-4.32435 -34.92872,0.007 -47.67375,1.25925 -71.33889,7.00827 -78.25307,19.01019 -128.08138,71.58623 -133.70279,141.07576 -2.69059,33.25994 6.07512,67.53774 23.38974,91.4642 20.0083,27.6488 50.67983,47.34627 98.31861,63.14094 18.1062,6.00306 32.08422,9.80193 66.09447,17.96266 60.5425,14.52714 80.5651,21.39734 95.65028,32.81974 12.3634,9.36153 17.63619,19.45773 17.50169,33.5118 -0.0766,8.00573 -2.38818,15.33533 -7.1277,22.60083 -14.81068,22.7042 -46.90991,34.4813 -90.45261,33.1869 -54.37731,-1.6165 -104.75734,-21.5049 -145.66613,-57.50413 -2.56667,-2.2586 -5.62677,-4.5964 -6.80023,-5.19514 -3.20525,-1.6352 -8.83168,-1.42826 -11.58334,0.42607 -3.28261,2.21213 -51.59292,69.9005 -52.5668,73.6521 -1.05684,4.0712 0.14593,8.3065 3.2111,11.3072 1.32326,1.2954 6.60594,5.7286 11.73927,9.8514 51.21395,41.1326 115.02374,64.3116 182.33333,66.2326 1.65,0.047 12.93905,-0.2044 25.08678,-0.559 z m 490.24654,-0.7359 c 41.9204,-3.18 83.19373,-17.4538 118.80613,-41.0874 3.721,-2.4694 7.72853,-5.3981 8.90566,-6.5082 2.8398,-2.6783 4.08987,-6.8087 3.08034,-10.178 -1.1422,-3.8123 -35.3052,-53.4559 -38.0574,-55.3026 -1.61467,-1.0835 -3.23394,-1.5201 -5.6382,-1.5201 -3.0312,0 -4.01767,0.4292 -9.73474,4.2348 -19.30026,12.8474 -40.29346,21.535 -63.02846,26.0827 -12.00427,2.4013 -19.8532,3.1275 -34.9684,3.2355 -15.6634,0.1119 -23.158,-1.0065 -35.5168,-5.3 -15.44186,-5.3646 -28.49933,-13.5708 -40.18146,-25.253 -8.476,-8.476 -14.06807,-16.0935 -19.22247,-26.18483 -6.26273,-12.2612 -11.1806,-29.32127 -9.15567,-31.76114 0.79234,-0.95473 13.99187,-1.054 140.14787,-1.054 153.84662,0 142.03733,0.35554 145.64239,-4.38466 l 1.9212,-2.52614 -0.1812,-13.37793 c -0.38226,-28.21853 -2.98706,-50.151 -8.4558,-71.19907 C 977.14624,818.977 948.76864,778.2458 908.62898,752.53027 876.94831,732.234 837.41764,722.1828 794.66664,723.55387 c -30.46093,0.97686 -58.15919,8.08166 -85.72926,21.9902 -51.94458,26.20486 -90.93725,77.40693 -103.17572,135.48193 -3.54454,16.81987 -4.04791,22.8444 -4.03618,48.30733 0.0115,25.09227 0.64689,32.26467 4.34046,49 8.00996,36.29247 27.64348,71.94207 53.54034,97.21577 34.74023,33.9044 79.14697,54.1205 125.3937,57.0854 9.34226,0.5988 39.26466,0.1853 51,-0.7049 z M 709.75805,890.101 c -0.96267,-1.06373 -1.02494,-1.86187 -0.45527,-5.83333 4.10353,-28.60647 23.25567,-55.08687 49.36387,-68.25214 8.26746,-4.16893 15.98113,-6.85253 25.01346,-8.7022 6.25254,-1.2804 9.50707,-1.50586 22.31987,-1.54633 13.13353,-0.0413 15.84893,0.13727 21.82246,1.43653 24.61974,5.355 44.74847,19.34267 58.30534,40.517 5.88006,9.184 10.7224,22.475 12.40373,34.0452 1.09007,7.5012 1.086,7.711 -0.16793,8.62787 -1.09114,0.79793 -15.3366,0.93973 -94.38767,0.93973 -89.71233,0 -93.1432,-0.0447 -94.21786,-1.23233 z"
         id="path16" />
    </g>
  </g>
</svg>
