<?xml version="1.0" encoding="UTF-8" standalone="no"?>
<svg
   xmlns:dc="http://purl.org/dc/elements/1.1/"
   xmlns:cc="http://creativecommons.org/ns#"
   xmlns:rdf="http://www.w3.org/1999/02/22-rdf-syntax-ns#"
   xmlns:svg="http://www.w3.org/2000/svg"
   xmlns="http://www.w3.org/2000/svg"
   xmlns:sodipodi="http://sodipodi.sourceforge.net/DTD/sodipodi-0.dtd"
   xmlns:inkscape="http://www.inkscape.org/namespaces/inkscape"
   version="1.1"
   x="0px"
   y="0px"
   viewBox="0 0 100.00001 100"
   enable-background="new 0 0 100 100"
   xml:space="preserve"
   id="svg18"
   sodipodi:docname="interactive.svg"
   width="100"
   height="100"
   inkscape:version="1.0.1 (3bc2e813f5, 2020-09-07)"><metadata
     id="metadata24"><rdf:RDF><cc:Work
         rdf:about=""><dc:format>image/svg+xml</dc:format><dc:type
           rdf:resource="http://purl.org/dc/dcmitype/StillImage" /><dc:title></dc:title></cc:Work></rdf:RDF></metadata><defs
     id="defs22" /><sodipodi:namedview
     pagecolor="#ffffff"
     bordercolor="#666666"
     borderopacity="1"
     objecttolerance="10"
     gridtolerance="10"
     guidetolerance="10"
     inkscape:pageopacity="0"
     inkscape:pageshadow="2"
     inkscape:window-width="1920"
     inkscape:window-height="1017"
     id="namedview20"
     showgrid="false"
     fit-margin-top="0"
     fit-margin-left="4.337"
     fit-margin-right="4.337"
     fit-margin-bottom="0"
     inkscape:zoom="6.8"
     inkscape:cx="49.684227"
     inkscape:cy="50.854348"
     inkscape:window-x="1912"
     inkscape:window-y="-8"
     inkscape:window-maximized="1"
     inkscape:current-layer="svg18" /><g
     id="g32"
     transform="matrix(1.0412533,0,0,1.0412533,-2.3914668,-1.9387016)"><path
       d="M 26.9,15.4 21.1,6.3 C 20.5,5.4 19.3,5.1 18.4,5.7 17.5,6.3 17.2,7.5 17.8,8.4 l 5.8,9.1 c 0.4,0.6 1,0.9 1.7,0.9 0.4,0 0.7,-0.1 1.1,-0.3 0.8,-0.5 1.1,-1.8 0.5,-2.7 z"
       id="path2" /><path
       d="m 19.6,34.3 -9.1,5.8 c -0.9,0.6 -1.2,1.8 -0.6,2.7 0.4,0.6 1,0.9 1.7,0.9 0.4,0 0.7,-0.1 1.1,-0.3 l 9.1,-5.8 C 22.7,37 23,35.8 22.4,34.9 21.8,34 20.6,33.8 19.6,34.3 Z"
       id="path4" /><path
       d="m 45,22.6 c 0.4,0 0.7,-0.1 1.1,-0.3 l 9.1,-5.8 c 0.9,-0.6 1.2,-1.8 0.6,-2.7 C 55.2,12.9 54,12.6 53.1,13.2 L 44,19 c -0.9,0.6 -1.2,1.8 -0.6,2.7 0.3,0.6 0.9,0.9 1.6,0.9 z"
       id="path6" /><path
       d="m 35,16.5 c 0.1,0 0.3,0 0.4,0 0.9,0 1.7,-0.6 1.9,-1.6 L 39.7,4.3 C 39.9,3.2 39.3,2.2 38.2,1.9 37.1,1.7 36.1,2.3 35.8,3.4 L 33.4,14 c -0.2,1.2 0.5,2.2 1.6,2.5 z"
       id="path8" /><path
       d="m 19,26.9 c 0.9,0 1.7,-0.6 1.9,-1.6 0.2,-1.1 -0.4,-2.1 -1.5,-2.4 L 8.9,20.7 C 7.8,20.5 6.8,21.1 6.5,22.2 6.3,23.3 6.9,24.3 8,24.6 l 10.6,2.3 c 0.1,0 0.3,0 0.4,0 z"
       id="path10" /><path
       d="m 94.1,82.8 c -0.3,-1.3 -0.3,-3.4 -0.3,-5.8 0,-7.7 0.1,-19.4 -8.8,-33.4 0,0 0,0 0,0 l -5.4,-8.5 c -0.9,-1.5 -2.4,-2.5 -4.1,-2.9 -1.7,-0.4 -3.5,-0.1 -5,0.9 0,0 -0.1,0 -0.1,0.1 -0.9,0.6 -1.6,1.3 -2.1,2.2 -0.8,-0.6 -1.7,-1 -2.6,-1.2 -1.8,-0.4 -3.6,-0.1 -5.1,0.9 -0.1,0 -0.1,0.1 -0.2,0.1 -1.1,0.8 -2,1.8 -2.5,3.1 -1.9,-0.9 -4.2,-0.8 -6.2,0.3 -0.1,0 -0.2,0.1 -0.3,0.1 -0.8,0.5 -1.5,1.2 -2,2 L 40.8,27 c -1,-1.6 -2.7,-2.8 -4.6,-3.2 -1.9,-0.4 -3.9,-0.1 -5.5,1 0,0 0,0 -0.1,0.1 0,0 -0.1,0 -0.1,0 -1.6,1 -2.8,2.7 -3.2,4.6 -0.4,1.9 -0.1,3.9 1,5.5 l 14.6,22.9 c -0.7,0.3 -1.4,0.8 -2.1,1.3 -0.3,0.2 -0.7,0.5 -1.1,0.7 0,0 0,0 0,0 -1.7,1.1 -2.9,2.8 -3.4,4.8 -0.4,2 -0.1,4.1 1,5.8 l 5.1,8 c 0.1,0.1 0.2,0.3 0.3,0.4 6.2,8.5 13.7,10.8 18.9,12.2 1.4,0.4 2.6,0.8 3.5,1.2 0.2,0.1 0.3,0.1 0.5,0.1 0,0 0,0 0,0 2.4,0.5 3.1,1.7 4.4,3.9 l 0.5,0.7 c 0.4,0.6 1,0.9 1.7,0.9 0.4,0 0.7,-0.1 1.1,-0.3 0.9,-0.6 1.2,-1.8 0.6,-2.7 l -0.4,-0.7 c -1.4,-2.3 -2.9,-4.8 -6.9,-5.7 0,0 0,0 0,0 C 65.5,88 64.3,87.7 62.8,87.3 57.6,85.8 50.5,83.7 45,75 c 0,0 0,0 0,0 l -4.3,-6.7 c -0.5,-0.8 -0.7,-1.8 -0.5,-2.8 0.2,-1 0.8,-1.8 1.6,-2.3 0,0 0,0 0,0 0.4,-0.3 0.8,-0.5 1.1,-0.8 0.7,-0.5 1.7,-1.2 1.9,-1.2 0,0 0.1,0.1 0.4,0.4 l 6,9.4 c 0.4,0.6 1,0.9 1.7,0.9 0.4,0 0.7,-0.1 1.1,-0.3 0.9,-0.6 1.2,-1.8 0.6,-2.7 l -5.9,-9.4 c 0,0 0,0 0,0 0,0 0,0 0,0 l -17,-26.7 c -0.5,-0.8 -0.6,-1.6 -0.4,-2.5 0.2,-0.9 0.7,-1.6 1.5,-2.1 0,0 0,0 0.1,-0.1 0,0 0.1,0 0.1,0 0.8,-0.5 1.6,-0.6 2.5,-0.4 0.9,0.2 1.6,0.7 2.1,1.5 l 12,18.9 c 0,0 0,0 0,0 0,0 0,0 0,0 l 5.6,8.9 c 0.4,0.6 1,0.9 1.7,0.9 0.4,0 0.7,-0.1 1.1,-0.3 0.9,-0.6 1.2,-1.8 0.6,-2.7 L 53,46 c -0.8,-1.3 -0.4,-3.1 0.9,-3.9 0,0 0,0 0,0 1.3,-0.8 3.1,-0.4 3.9,0.9 l 5.6,8.9 c 0.4,0.6 1,0.9 1.7,0.9 0.4,0 0.7,-0.1 1.1,-0.3 0.9,-0.6 1.2,-1.8 0.6,-2.7 l -4.7,-7.4 c 0,0 0,0 0,0 -0.4,-0.6 -0.5,-1.4 -0.4,-2.1 0.2,-0.7 0.6,-1.4 1.2,-1.8 0,0 0,0 0,0 0.6,-0.4 1.4,-0.5 2.1,-0.4 0.7,0.2 1.4,0.6 1.8,1.2 l 1.9,2.9 c 0,0 0,0 0,0 0,0 0,0 0,0 l 3.8,5.9 c 0.4,0.6 1,0.9 1.7,0.9 0.4,0 0.7,-0.1 1.1,-0.3 0.9,-0.6 1.2,-1.8 0.6,-2.7 l -4.1,-6 c 0,0 0,0 0,0 -0.4,-0.6 -0.5,-1.3 -0.3,-2 0.2,-0.7 0.6,-1.3 1.1,-1.6 0,0 0,0 0,0 0.6,-0.4 1.3,-0.5 2,-0.3 0.7,0.2 1.3,0.6 1.6,1.1 l 5.4,8.5 c 8.3,13 8.2,24 8.2,31.3 0,2.8 0,5 0.4,6.8 0.2,0.9 1,1.5 1.9,1.5 0.2,0 0.3,0 0.5,-0.1 1.1,-0.3 1.8,-1.4 1.5,-2.4 z"
       id="path12" /></g></svg>
