<?xml version="1.0" encoding="UTF-8" standalone="no"?>
<svg
   xmlns:dc="http://purl.org/dc/elements/1.1/"
   xmlns:cc="http://creativecommons.org/ns#"
   xmlns:rdf="http://www.w3.org/1999/02/22-rdf-syntax-ns#"
   xmlns:svg="http://www.w3.org/2000/svg"
   xmlns="http://www.w3.org/2000/svg"
   xmlns:sodipodi="http://sodipodi.sourceforge.net/DTD/sodipodi-0.dtd"
   xmlns:inkscape="http://www.inkscape.org/namespaces/inkscape"
   data-name="Layer 1"
   viewBox="0 0 100 100"
   x="0px"
   y="0px"
   version="1.1"
   id="svg16"
   sodipodi:docname="optimization.svg"
   width="100"
   height="100"
   inkscape:version="1.0.1 (3bc2e813f5, 2020-09-07)">
  <metadata
     id="metadata22">
    <rdf:RDF>
      <cc:Work
         rdf:about="">
        <dc:format>image/svg+xml</dc:format>
        <dc:type
           rdf:resource="http://purl.org/dc/dcmitype/StillImage" />
        <dc:title>iOS optimized seo 01 final</dc:title>
      </cc:Work>
    </rdf:RDF>
  </metadata>
  <defs
     id="defs20" />
  <sodipodi:namedview
     pagecolor="#ffffff"
     bordercolor="#666666"
     borderopacity="1"
     objecttolerance="10"
     gridtolerance="10"
     guidetolerance="10"
     inkscape:pageopacity="0"
     inkscape:pageshadow="2"
     inkscape:window-width="1920"
     inkscape:window-height="1017"
     id="namedview18"
     showgrid="false"
     fit-margin-top="0"
     fit-margin-left="0"
     fit-margin-right="14.00044"
     fit-margin-bottom="0"
     inkscape:zoom="5.3125"
     inkscape:cx="31.512652"
     inkscape:cy="55.043883"
     inkscape:window-x="-8"
     inkscape:window-y="-8"
     inkscape:window-maximized="1"
     inkscape:current-layer="svg16"
     inkscape:document-rotation="0" />
  <title
     id="title2">iOS optimized seo 01 final</title>
  <g
     id="g28"
     transform="matrix(0.99999486,0,0,0.99999486,-20.999892,-13.999671)">
    <path
       d="M 27.85156,53.53027 A 0.75129,0.75129 0 0 1 27.11133,54 h -1.334 A 4.72846,4.72846 0 0 0 21,58.6665 v 10.667 A 4.72846,4.72846 0 0 0 25.77734,74 h 1.334 a 0.75068,0.75068 0 0 1 0.74023,0.4707 43.4566,43.4566 0 0 0 5.54785,12.87549 0.56616,0.56616 0 0 1 -0.14355,0.71533 l -0.90918,0.88672 a 4.5733,4.5733 0 0 0 -0.0088,6.668 l 7.83691,7.52393 a 4.84424,4.84424 0 0 0 6.69922,0.0195 l 0.95605,-0.90381 a 0.8295,0.8295 0 0 1 0.96191,-0.13184 47.18976,47.18976 0 0 0 13.35938,5.30566 0.65428,0.65428 0 0 1 0.51563,0.62354 v 1.28027 A 4.72846,4.72846 0 0 0 67.44434,114 H 73 a 2,2 0 0 0 0,-4 H 67.44434 A 0.7385,0.7385 0 0 1 66.667,109.3335 v -1.28027 a 4.62709,4.62709 0 0 0 -3.62109,-4.52246 43.15582,43.15582 0 0 1 -12.22266,-4.853 4.80772,4.80772 0 0 0 -5.75293,0.68262 l -0.96484,0.9126 a 0.84645,0.84645 0 0 1 -1.15137,-0.009 l -7.85547,-7.542 a 0.58786,0.58786 0 0 1 -0.19922,-0.43506 0.61306,0.61306 0 0 1 0.21973,-0.45508 l 0.917,-0.89453 A 4.57117,4.57117 0 0 0 36.76955,85.19143 39.48223,39.48223 0 0 1 31.73244,73.50393 4.7013,4.7013 0 0 0 27.11133,70 h -1.334 A 0.7385,0.7385 0 0 1 25,69.3335 V 58.6665 A 0.7385,0.7385 0 0 1 25.77734,58 h 1.334 A 4.70154,4.70154 0 0 0 31.73243,54.49707 39.47166,39.47166 0 0 1 36.7666,42.813 4.56731,4.56731 0 0 0 36.04883,37.07521 l -0.9502,-0.92676 a 0.58786,0.58786 0 0 1 -0.19922,-0.43506 0.599,0.599 0 0 1 0.208,-0.44385 l 7.85645,-7.54248 a 0.85293,0.85293 0 0 1 1.16211,0.01953 l 0.93262,0.88232 a 4.81492,4.81492 0 0 0 5.76074,0.69531 43.16187,43.16187 0 0 1 12.22367,-4.85449 4.6268,4.6268 0 0 0 3.624,-4.52295 V 18.6665 A 0.7385,0.7385 0 0 1 67.44434,18 H 73 a 2,2 0 0 0 0,-4 H 67.44434 A 4.72846,4.72846 0 0 0 62.667,18.6665 v 1.28027 a 0.65486,0.65486 0 0 1 -0.51855,0.624 47.19283,47.19283 0 0 0 -13.35937,5.30713 0.83044,0.83044 0 0 1 -0.9707,-0.14453 l -0.92383,-0.87354 a 4.849,4.849 0 0 0 -6.71,-0.0093 L 32.34668,32.375 a 4.57312,4.57312 0 0 0 -0.02051,6.65674 l 0.94238,0.91895 a 0.55956,0.55956 0 0 1 0.12793,0.70752 43.446,43.446 0 0 0 -5.54492,12.87206 z"
       id="path4" />
    <path
       d="m 90.26843,44.7373 -0.0028,-0.0034 -0.0036,-0.0029 a 27.23491,27.23491 0 0 0 -38.524,0 l -0.0036,0.0029 -0.0028,0.0034 a 27.23505,27.23505 0 0 0 0,38.52539 l 0.0028,0.0034 0.0036,0.0029 A 27.06675,27.06675 0 0 0 71,91.25 c 0.7995,0 1.59259,-0.04022 2.37994,-0.108 a 1.908,1.908 0 0 0 1.652,-0.18677 A 27.0476,27.0476 0 0 0 90.262,83.269 l 0.0036,-0.0029 0.0028,-0.0034 a 27.23505,27.23505 0 0 0 0,-38.52539 z M 88.78277,78.9544 87.24413,77.41552 A 1.99979,1.99979 0 1 0 84.416,80.24365 l 1.5387,1.53894 A 23.00941,23.00941 0 0 1 76,86.69556 V 85.728 a 2,2 0 1 0 -4,0 v 1.47321 c -0.3338,0.0141 -0.66388,0.04877 -1,0.04877 A 23.06029,23.06029 0 0 1 56.04529,81.78257 l 1.5387,-1.53894 a 1.99979,1.99979 0 1 0 -2.82812,-2.82812 l -1.53864,1.53888 A 23.02,23.02 0 0 1 47.84753,66 h 1.424 a 2,2 0 1 0 0,-4 h -1.424 A 23.01258,23.01258 0 0 1 53.2171,49.04547 l 1.53876,1.539 A 1.99979,1.99979 0 1 0 57.584,47.75635 L 56.0453,46.21741 A 23.01564,23.01564 0 0 1 69,40.84753 V 42.272 a 2,2 0 0 0 4,0 V 40.84753 A 23.01564,23.01564 0 0 1 85.95471,46.2174 L 84.416,47.75635 a 1.99979,1.99979 0 1 0 2.82813,2.82813 l 1.53876,-1.539 A 23.01258,23.01258 0 0 1 94.15247,62 h -1.424 a 2,2 0 0 0 0,4 h 1.424 a 23.02,23.02 0 0 1 -5.36969,12.95441 z"
       id="path6" />
    <path
       d="M 71,28 A 36,36 0 1 0 107,64 36.04062,36.04062 0 0 0 71,28 Z m 0,68 A 32,32 0 1 1 103,64 32.03635,32.03635 0 0 1 71,96 Z"
       id="path8" />
    <path
       d="M 73,57.35 V 51 a 2,2 0 0 0 -4,0 v 6.35 a 6,6 0 1 0 4,0 z M 71,65 a 2,2 0 1 1 2,-2 2.00229,2.00229 0 0 1 -2,2 z"
       id="path10" />
  </g>
</svg>
