<?xml version="1.0" encoding="UTF-8" standalone="no"?>
<svg
   xmlns:dc="http://purl.org/dc/elements/1.1/"
   xmlns:cc="http://creativecommons.org/ns#"
   xmlns:rdf="http://www.w3.org/1999/02/22-rdf-syntax-ns#"
   xmlns:svg="http://www.w3.org/2000/svg"
   xmlns="http://www.w3.org/2000/svg"
   xmlns:sodipodi="http://sodipodi.sourceforge.net/DTD/sodipodi-0.dtd"
   xmlns:inkscape="http://www.inkscape.org/namespaces/inkscape"
   version="1.1"
   x="0px"
   y="0px"
   viewBox="0 0 100 100"
   xml:space="preserve"
   id="svg8"
   sodipodi:docname="user.svg"
   width="100"
   height="100"
   inkscape:version="1.0.1 (3bc2e813f5, 2020-09-07)"><metadata
     id="metadata14"><rdf:RDF><cc:Work
         rdf:about=""><dc:format>image/svg+xml</dc:format><dc:type
           rdf:resource="http://purl.org/dc/dcmitype/StillImage" /><dc:title></dc:title></cc:Work></rdf:RDF></metadata><defs
     id="defs12" /><sodipodi:namedview
     pagecolor="#ffffff"
     bordercolor="#666666"
     borderopacity="1"
     objecttolerance="10"
     gridtolerance="10"
     guidetolerance="10"
     inkscape:pageopacity="0"
     inkscape:pageshadow="2"
     inkscape:window-width="1920"
     inkscape:window-height="1017"
     id="namedview10"
     showgrid="false"
     inkscape:zoom="2.5043365"
     inkscape:cx="14.081704"
     inkscape:cy="66.844626"
     inkscape:window-x="1912"
     inkscape:window-y="-8"
     inkscape:window-maximized="1"
     inkscape:current-layer="svg8"
     units="mm"
     width="24mm"
     fit-margin-top="0"
     fit-margin-left="0"
     fit-margin-right="0"
     fit-margin-bottom="0" /><path
     d="M 20.090909,90.090909 C 28.454546,96.318182 38.772727,100 50,100 60.909091,100 71,96.5 79.227273,90.590909 91.818182,81.454545 100,66.681818 100,50 100,22.409091 77.590909,0 50,0 22.409091,0 0,22.409091 0,50 0,66.363636 7.909091,80.954545 20.090909,90.090909 Z M 50,90.909091 c -8,0 -15.454546,-2.318182 -21.772727,-6.318182 C 30.954546,75.045455 39.909091,68.181818 50,68.181818 c 10.090909,0 19.045455,6.863637 21.772727,16.409091 C 65.454545,88.590909 58,90.909091 50,90.909091 Z M 36.363636,45.454546 C 36.363636,37.954545 42.5,31.818182 50,31.818182 c 7.5,0 13.636364,6.136363 13.636364,13.636364 0,7.499999 -6.136364,13.636363 -13.636364,13.636363 -7.5,0 -13.636364,-6.136364 -13.636364,-13.636363 z M 50,9.090909 C 72.545455,9.090909 90.909091,27.454545 90.909091,50 90.909091,61.090909 86.5,71.136364 79.318182,78.5 76.454545,71.636364 71.272727,66.045455 64.772727,62.727273 69.636364,58.545455 72.727273,52.363636 72.727273,45.454546 72.727273,32.909091 62.545455,22.727273 50,22.727273 c -12.545455,0 -22.727273,10.181818 -22.727273,22.727273 0,6.90909 3.090909,13.090909 7.954546,17.272727 C 28.727273,66.045455 23.545455,71.636364 20.681818,78.5 13.5,71.136364 9.090909,61.090909 9.090909,50 9.090909,27.454545 27.454545,9.090909 50,9.090909 Z"
     id="path2"
     style="stroke-width:4.54545" /></svg>
