<?xml version="1.0" encoding="UTF-8" standalone="no"?>
<svg
   xmlns:dc="http://purl.org/dc/elements/1.1/"
   xmlns:cc="http://creativecommons.org/ns#"
   xmlns:rdf="http://www.w3.org/1999/02/22-rdf-syntax-ns#"
   xmlns:svg="http://www.w3.org/2000/svg"
   xmlns="http://www.w3.org/2000/svg"
   xmlns:sodipodi="http://sodipodi.sourceforge.net/DTD/sodipodi-0.dtd"
   xmlns:inkscape="http://www.inkscape.org/namespaces/inkscape"
   width="2000"
   height="2000"
   viewBox="0 0 529.16668 529.1667"
   version="1.1"
   id="svg8"
   inkscape:version="1.0.1 (3bc2e813f5, 2020-09-07)"
   sodipodi:docname="Logo.svg">
  <defs
     id="defs2" />
  <sodipodi:namedview
     id="base"
     pagecolor="#ffffff"
     bordercolor="#666666"
     borderopacity="1.0"
     inkscape:pageopacity="0"
     inkscape:pageshadow="2"
     inkscape:zoom="0.25"
     inkscape:cx="1702.2549"
     inkscape:cy="1475.9755"
     inkscape:document-units="mm"
     inkscape:current-layer="g198"
     inkscape:document-rotation="0"
     showgrid="false"
     fit-margin-top="131.23914"
     fit-margin-left="17.92816"
     fit-margin-right="17.92816"
     fit-margin-bottom="131.23914"
     lock-margins="false"
     inkscape:snap-bbox="true"
     inkscape:bbox-paths="true"
     inkscape:bbox-nodes="true"
     inkscape:snap-bbox-edge-midpoints="true"
     inkscape:snap-bbox-midpoints="true"
     inkscape:object-paths="true"
     inkscape:snap-intersection-paths="true"
     inkscape:snap-smooth-nodes="true"
     inkscape:snap-midpoints="true"
     inkscape:snap-object-midpoints="false"
     inkscape:snap-center="false"
     inkscape:snap-text-baseline="true"
     inkscape:snap-nodes="true"
     inkscape:object-nodes="true"
     inkscape:snap-others="true"
     inkscape:snap-grids="true"
     inkscape:pagecheckerboard="true"
     units="px"
     inkscape:window-width="1920"
     inkscape:window-height="1017"
     inkscape:window-x="-8"
     inkscape:window-y="-8"
     inkscape:window-maximized="1" />
  <metadata
     id="metadata5">
    <rdf:RDF>
      <cc:Work
         rdf:about="">
        <dc:format>image/svg+xml</dc:format>
        <dc:type
           rdf:resource="http://purl.org/dc/dcmitype/StillImage" />
        <dc:title></dc:title>
      </cc:Work>
    </rdf:RDF>
  </metadata>
  <g
     inkscape:label="Layer 1"
     inkscape:groupmode="layer"
     id="layer1"
     transform="translate(503.92418,-162.96591)">
    <g
       id="g198"
       transform="translate(-505.88333,600.85265)">
      <path
         style="fill:#e0f4f2;stroke-width:0.264583"
         d="m 162.03207,-53.884066 c -6.28838,-1.398164 -9.62285,-8.259181 -6.75577,-13.90068 0.43055,-0.847196 8.78339,-9.3617 29.01405,-29.575576 l 28.40943,-28.385908 -28.41193,-28.39198 c -20.1582,-20.14407 -28.58684,-28.73618 -29.01404,-29.57678 -0.90255,-1.77593 -1.24021,-4.00171 -0.89548,-5.90281 1.18468,-6.5331 8.21028,-10.13234 13.9931,-7.16873 0.85786,0.43964 10.42869,9.84444 33.48043,32.89964 34.55634,34.56151 33.46991,33.3911 33.99042,36.61812 0.31927,1.97943 -0.0396,4.16944 -0.97832,5.96977 -0.58006,1.11249 -7.46559,8.13967 -33.0121,33.691167 -23.0806,23.085109 -32.62149,32.460699 -33.48043,32.90033 -1.04975,0.53729 -3.78858,1.233091 -4.60202,1.169168 -0.15518,-0.01217 -0.93698,-0.167772 -1.73734,-0.345731 z m 82.02083,0 c -1.95692,-0.435108 -3.52009,-1.286166 -4.90379,-2.669884 -5.60258,-5.602579 -2.5703,-15.063947 5.29375,-16.5177 2.19794,-0.406321 113.96799,-0.406321 116.16591,0 2.04452,0.37793 3.86996,1.325721 5.29172,2.747486 5.60459,5.60459 2.57395,15.065693 -5.29172,16.519737 -2.3626,0.436775 -114.5782,0.360072 -116.55587,-0.07964 z"
         id="path212" />
      <path
         style="fill:#d3e9e8;stroke-width:0.264583"
         d="m 201.85186,-87.647415 c 16.15232,-16.152815 29.42739,-29.368755 29.50015,-29.368755 0.0728,0 -13.08325,13.21594 -29.23557,29.368755 -16.15232,16.152814 -29.42739,29.368752 -29.50015,29.368752 -0.0728,0 13.08325,-13.215938 29.23557,-29.368752 z m -16.2722,-11.178646 26.85456,-26.921359 -26.85456,-26.92135 -26.85456,-26.92136 26.98718,26.92136 26.98717,26.92135 -26.98717,26.921359 -26.98718,26.921355 z m 47.75762,-20.306769 c 0.26339,-0.29104 0.53842,-0.52917 0.61118,-0.52917 0.0728,0 -0.0832,0.23813 -0.3466,0.52917 -0.26339,0.29104 -0.53842,0.52916 -0.61118,0.52916 -0.0728,0 0.0832,-0.23812 0.3466,-0.52916 z m 2.53443,-5.71058 c 0.0127,-0.30824 0.0754,-0.37092 0.15985,-0.15987 0.0764,0.19101 0.067,0.41921 -0.0209,0.50713 -0.0879,0.0879 -0.15045,-0.0684 -0.13896,-0.34726 z m 0,-1.85209 c 0.0127,-0.30824 0.0754,-0.37092 0.15985,-0.15986 0.0764,0.191 0.067,0.41921 -0.0209,0.50713 -0.0879,0.0879 -0.15045,-0.0684 -0.13896,-0.34727 z m -2.55957,-5.73265 -0.50403,-0.59531 0.59531,0.50403 c 0.55945,0.47366 0.71576,0.6866 0.50403,0.6866 -0.0502,0 -0.3181,-0.26789 -0.59531,-0.59532 z m -31.46073,-31.48541 -29.3683,-29.4349 29.43489,29.3683 c 16.1892,16.15258 29.4349,29.39828 29.4349,29.4349 0,0.0366 -0.03,0.0666 -0.0666,0.0666 -0.0366,0 -13.28233,-13.2457 -29.4349,-29.43489 z"
         id="path210" />
      <path
         style="fill:#afc9cc;stroke-width:0.264583"
         d="m 156.84755,-56.492726 -0.50403,-0.595312 0.59532,0.504031 c 0.32742,0.277204 0.59531,0.545095 0.59531,0.595313 0,0.211719 -0.21294,0.0554 -0.6866,-0.504032 z m 14.18035,-0.06615 c 0.34177,-0.363802 0.68094,-0.661458 0.7537,-0.661458 0.0728,0 -0.14734,0.297656 -0.48912,0.661458 -0.34177,0.363803 -0.68094,0.661459 -0.7537,0.661459 -0.0728,0 0.14734,-0.297656 0.48912,-0.661459 z m 67.84049,0.06615 -0.50403,-0.595312 0.59531,0.504031 c 0.55945,0.473657 0.71576,0.686594 0.50403,0.686594 -0.0502,0 -0.3181,-0.267891 -0.59531,-0.595313 z m 127.02514,0.06615 c 0.2634,-0.291042 0.53843,-0.529167 0.61119,-0.529167 0.0728,0 -0.0832,0.238125 -0.3466,0.529167 -0.2634,0.291042 -0.53843,0.529167 -0.61119,0.529167 -0.0728,0 0.0832,-0.238125 0.3466,-0.529167 z M 156.87269,-70.449497 c 0.26339,-0.291042 0.53842,-0.529167 0.61118,-0.529167 0.0728,0 -0.0832,0.238125 -0.3466,0.529167 -0.26339,0.291042 -0.53842,0.529167 -0.61118,0.529167 -0.0728,0 0.0832,-0.238125 0.3466,-0.529167 z m 82.02084,0 c 0.26339,-0.291042 0.53842,-0.529167 0.61118,-0.529167 0.0728,0 -0.0832,0.238125 -0.3466,0.529167 -0.26339,0.291042 -0.53842,0.529167 -0.61118,0.529167 -0.0728,0 0.0832,-0.238125 0.3466,-0.529167 z m 126.97487,-0.06615 -0.50403,-0.595313 0.59531,0.504032 c 0.55943,0.473657 0.71575,0.686594 0.50403,0.686594 -0.0502,0 -0.31811,-0.267891 -0.59531,-0.595313 z m -208.88344,-110.463543 -0.64144,-0.7276 0.72761,0.64143 c 0.40018,0.35279 0.7276,0.68021 0.7276,0.7276 0,0.20751 -0.21426,0.0386 -0.81377,-0.64143 z m -0.11227,-14.08906 c 0.26339,-0.29104 0.53842,-0.52917 0.61118,-0.52917 0.0728,0 -0.0832,0.23813 -0.3466,0.52917 -0.26339,0.29104 -0.53842,0.52916 -0.61118,0.52916 -0.0728,0 0.0832,-0.23812 0.3466,-0.52916 z m 13.99778,-0.0661 -0.50403,-0.59531 0.59531,0.50403 c 0.55945,0.47366 0.71577,0.68659 0.50403,0.68659 -0.0502,0 -0.3181,-0.26789 -0.59531,-0.59531 z"
         id="path208" />
      <path
         style="fill:#8eaeb4;stroke-width:0.264583"
         d="m 232.9404,-118.47137 c 0.34178,-0.36381 0.68094,-0.66146 0.7537,-0.66146 0.0728,0 -0.14734,0.29765 -0.48911,0.66146 -0.34178,0.3638 -0.68094,0.66145 -0.7537,0.66145 -0.0728,0 0.14734,-0.29765 0.48911,-0.66145 z m -0.02,-14.61823 -0.64143,-0.72761 0.72761,0.64143 c 0.40018,0.3528 0.7276,0.68022 0.7276,0.72761 0,0.20751 -0.21426,0.0386 -0.81378,-0.64143 z m -61.13247,-61.11876 c -0.32911,-0.41964 -0.31975,-0.429 0.0999,-0.0999 0.25466,0.19972 0.46302,0.40808 0.46302,0.46302 0,0.21776 -0.21727,0.0776 -0.56291,-0.36313 z"
         id="path206"
         sodipodi:nodetypes="sssssscssssssss" />
      <path
         style="fill:#5d8893;stroke-width:0.264583"
         d="m 200.92582,-86.45679 c 15.78851,-15.78901 28.76591,-28.70729 28.83867,-28.70729 0.0728,0 -12.78558,12.91828 -28.57409,28.70729 -15.78851,15.789012 -28.76591,28.707293 -28.83867,28.707293 -0.0728,0 12.78558,-12.918281 28.57409,-28.707293 z m -0.79418,-27.18623 12.0374,-12.105 -27.11885,-27.18563 -27.11884,-27.18564 27.25166,27.18583 27.25166,27.18583 -12.17021,12.1048 -12.1702,12.10479 z m -3.83658,-56.09138 -24.07654,-24.14323 24.14323,24.07653 c 13.27878,13.24211 24.14323,24.10656 24.14323,24.14323 0,0.0367 -0.03,0.0667 -0.0667,0.0667 -0.0367,0 -10.90113,-10.86445 -24.14323,-24.14323 z"
         id="path204" />
      <path
         style="fill:#457a87;stroke-width:0.264583"
         d="m 173.14457,-86.721373 c 8.22096,-8.221927 15.00673,-14.948957 15.07949,-14.948957 0.0728,0 -6.59395,6.72703 -14.81491,14.948957 -8.22096,8.221928 -15.00673,14.948959 -15.07949,14.948959 -0.0728,0 6.59394,-6.727031 14.81491,-14.948959 z m 57.66811,-29.567187 c 1.09642,-1.16819 1.33397,-1.37824 1.33397,-1.17957 0,0.0425 -0.56554,0.60802 -1.25677,1.25677 l -1.25677,1.17957 z m -4.62141,-23.54792 -5.81858,-5.88698 5.88698,5.81859 c 5.47013,5.40654 6.00633,5.95537 5.81858,5.95537 -0.0376,0 -2.68676,-2.64914 -5.88698,-5.88698 z"
         id="path202" />
      <path
         style="fill:#156577;stroke-width:0.264583"
         d="M 14.659143,56.182605 C 11.613741,55.505484 8.9879772,53.406491 7.8159632,50.712292 7.4719543,49.921479 7.0850011,49.067721 6.9560673,48.815044 6.820572,48.549482 6.7216422,-27.293572 6.7216422,-130.90319 V -310.16201 H 266.54249 526.36333 v 179.25882 c 0,103.609618 -0.0989,179.452672 -0.23442,179.718234 -0.12893,0.252677 -0.51588,1.106435 -0.85989,1.897248 -1.21571,2.794661 -4.03649,4.959032 -7.23316,5.549953 -2.38667,0.441219 -501.389255,0.362267 -503.376717,-0.07964 z M 168.40766,-54.414265 c 1.25091,-0.621347 6.51261,-5.773976 33.89275,-33.190075 36.81396,-36.86231 33.6827,-33.31641 33.6827,-38.14308 0,-4.82666 3.13126,-1.28076 -33.6827,-38.14307 -27.0489,-27.08443 -32.65697,-32.57874 -33.89275,-33.20521 -1.35968,-0.68927 -1.71887,-0.75068 -4.39122,-0.75068 -2.67016,0 -3.03055,0.0615 -4.36562,0.74472 -1.90798,0.97643 -3.72611,2.78419 -4.66659,4.63997 -0.69697,1.37528 -0.75737,1.7266 -0.75737,4.4049 0,2.66566 0.0624,3.03279 0.74149,4.36562 0.6076,1.19243 5.83933,6.55563 28.97142,29.69948 l 28.22991,28.24427 -28.22991,28.244276 c -23.13209,23.143846 -28.36382,28.507056 -28.97142,29.69948 -0.67914,1.332839 -0.74149,1.699975 -0.74149,4.365625 0,2.671181 0.0613,3.030035 0.74545,4.365626 1.24642,2.433161 3.26176,4.230978 5.75777,5.136303 0.84634,0.306996 1.86455,0.401214 3.68324,0.34081 2.11441,-0.07019 2.74867,-0.200237 3.99434,-0.818965 z m 195.0116,0.0085 c 1.85578,-0.940488 3.66355,-2.758625 4.63997,-4.666589 0.68323,-1.335087 0.74472,-1.695476 0.74472,-4.365625 0,-2.670149 -0.0615,-3.030538 -0.74472,-4.365625 -0.97642,-1.907964 -2.78419,-3.726101 -4.63997,-4.666589 l -1.49448,-0.75737 h -59.39896 -59.39896 l -1.49448,0.75737 c -1.85578,0.940488 -3.66354,2.758625 -4.63997,4.666589 -0.68324,1.335087 -0.74472,1.695476 -0.74472,4.365625 0,2.67118 0.0613,3.030035 0.74545,4.365625 1.25143,2.442925 3.28932,4.256061 5.75777,5.122731 1.04558,0.367109 7.4308,0.404865 60.17179,0.355944 l 59.00208,-0.05472 z M 6.7852869,-356.13336 l 0.082643,-30.36094 0.603162,-1.98438 c 2.1834304,-7.18338 7.0647781,-12.02201 14.1995091,-14.07524 l 2.116667,-0.60913 H 266.54249 509.29771 l 2.11666,0.60913 c 7.13473,2.05323 12.01608,6.89186 14.1995,14.07524 l 0.60317,1.98438 0.0827,30.36094 0.0826,30.36093 H 266.54249 6.7026433 Z"
         id="path200" />
    </g>
  </g>
</svg>
