<?xml version="1.0" standalone="no"?>
<!DOCTYPE svg PUBLIC "-//W3C//DTD SVG 20010904//EN"
 "http://www.w3.org/TR/2001/REC-SVG-20010904/DTD/svg10.dtd">
<svg version="1.0" xmlns="http://www.w3.org/2000/svg"
 width="2000.000000pt" height="2000.000000pt" viewBox="0 0 2000.000000 2000.000000"
 preserveAspectRatio="xMidYMid meet">
<metadata>
Created by potrace 1.11, written by Peter Selinger 2001-2013
</metadata>
<g transform="translate(0.000000,2000.000000) scale(0.100000,-0.100000)"
fill="#000000" stroke="none">
<path d="M756 18709 c-164 -40 -295 -123 -415 -265 -27 -32 -102 -158 -105
-177 -1 -6 -5 -17 -9 -24 -4 -7 -16 -52 -27 -100 -19 -84 -19 -138 -20 -1215
l0 -1128 9820 0 9821 0 -4 1158 c-3 1261 1 1171 -59 1318 -54 131 -164 259
-291 338 -65 40 -156 80 -207 91 -8 2 -35 8 -60 14 -31 7 -2793 10 -9205 10
-8965 -1 -9162 -1 -9239 -20z"/>
<path d="M182 8423 l3 -6788 31 -65 c49 -103 118 -164 224 -199 l65 -22 9515
3 9515 3 67 32 c82 39 138 95 181 182 l32 66 3 6787 2 6788 -9820 0 -9820 0 2
-6787z"/>
</g>
</svg>
